<svg xmlns="http://www.w3.org/2000/svg" viewBox="0 0 50 50"><defs><style>.a{fill:#00b900;}.b{fill:#fff;}</style></defs><title>LINE_SOCIAL_Circle_RGB</title><circle class="a" cx="25" cy="25" r="25"/><path class="b" d="M437.57,296.14c0-7.44-7.46-13.5-16.63-13.5s-16.62,6.06-16.62,13.5c0,6.67,5.91,12.25,13.9,13.31.54.12,1.28.36,1.47.82a3.31,3.31,0,0,1,.05,1.5s-.19,1.18-.24,1.43c-.07.42-.33,1.64,1.44.89s9.58-5.64,13.07-9.65h0a12,12,0,0,0,3.56-8.3" transform="translate(-395.94 -272.64)"/><path class="a" d="M417.57,292.54H416.4a.32.32,0,0,0-.32.32v7.25a.32.32,0,0,0,.32.32h1.17a.32.32,0,0,0,.32-.32v-7.25a.33.33,0,0,0-.32-.32" transform="translate(-395.94 -272.64)"/><path class="a" d="M425.59,292.54h-1.16a.33.33,0,0,0-.33.32v4.31l-3.32-4.49,0,0h0l0,0h-1.39a.33.33,0,0,0-.33.32v7.25a.32.32,0,0,0,.33.32h1.16a.32.32,0,0,0,.33-.32v-4.3l3.32,4.49a.34.34,0,0,0,.09.08h1.34a.32.32,0,0,0,.33-.32v-7.25a.33.33,0,0,0-.33-.32" transform="translate(-395.94 -272.64)"/><path class="a" d="M414.75,298.62h-3.16v-5.76a.33.33,0,0,0-.33-.32h-1.17a.33.33,0,0,0-.32.32v7.25h0a.32.32,0,0,0,.09.22h0a.31.31,0,0,0,.22.09h4.66a.32.32,0,0,0,.33-.32v-1.17a.32.32,0,0,0-.33-.32" transform="translate(-395.94 -272.64)"/><path class="a" d="M432,294.36a.33.33,0,0,0,.32-.33v-1.16a.33.33,0,0,0-.32-.33h-4.66a.36.36,0,0,0-.23.09h0a.36.36,0,0,0-.09.22h0v7.24h0a.32.32,0,0,0,.09.22h0a.32.32,0,0,0,.23.09H432a.32.32,0,0,0,.32-.32v-1.17a.32.32,0,0,0-.32-.32h-3.17v-1.23H432a.32.32,0,0,0,.32-.32V295.9a.32.32,0,0,0-.32-.32h-3.17v-1.22Z" transform="translate(-395.94 -272.64)"/></svg>