<svg xmlns="http://www.w3.org/2000/svg" viewBox="0 0 50 50"><defs><style>.a{fill:#00b900;}.b{fill:#fff;}</style></defs><title>[AI]LINE@_APP_RGB</title><rect class="a" width="50" height="50" rx="25"/><path class="b" d="M153.36,281.39a16.25,16.25,0,1,0,5,31.7l1-.34a.65.65,0,0,0,.42-.82l-.93-2.87a.65.65,0,0,0-.82-.41l-1,.34a11.94,11.94,0,1,1,8.23-11.35,12.78,12.78,0,0,1-.76,4.19c-.36,1-1.2,1.88-1.88,1.88a1.66,1.66,0,0,1-1.66-1.66V290.56a.65.65,0,0,0-.65-.65h-3a.65.65,0,0,0-.65.61v.26l-.23-.12a7.93,7.93,0,1,0,.49,13.68l.16-.11.07.18a6,6,0,0,0,5.49,3.62,6.64,6.64,0,0,0,6-4.78,17,17,0,0,0,1-5.61A16.27,16.27,0,0,0,153.36,281.39Zm3.27,16.25a3.93,3.93,0,1,1-3.92-3.92A3.93,3.93,0,0,1,156.63,297.64Z" transform="translate(-128.36 -272.64)"/></svg>