<svg xmlns="http://www.w3.org/2000/svg" width="213.171" height="52.477"><path d="M11.848 9.552l10.465-1.285a1.381 1.381 0 011.719 1.389l.672 5.478a1.358 1.358 0 01-1.337 1.711l-4.057.498.257 2.092 6.02-.74a1.485 1.485 0 01.988.141 1.225 1.225 0 01.402.921 1.127 1.127 0 01-1.089 1.393l-4.004.492a35.594 35.594 0 005.636 5.315 1.183 1.183 0 01.55.85.95.95 0 01-.415.89 1.9 1.9 0 01-1.02.44 2.709 2.709 0 01-1.981-.966 52.4 52.4 0 01-4.664-5.302l.885 7.209a1.3 1.3 0 01-.19 1.02 1.32 1.32 0 01-.962.484 1.27 1.27 0 01-1.052-.237 1.288 1.288 0 01-.456-.94l-.888-7.231a21.4 21.4 0 01-3.842 7.37 1.842 1.842 0 01-1.174.695 1.551 1.551 0 01-.981-.3 1 1 0 01-.399-.685 1.079 1.079 0 01.127-.672 28.326 28.326 0 004.033-7.104l-3.698.454a1.407 1.407 0 01-.965-.17 1.209 1.209 0 01-.427-.918 1.369 1.369 0 01.193-.993 1.5 1.5 0 01.898-.376l5.814-.714-.257-2.09-3.748.46a1.358 1.358 0 01-1.71-1.338l-.673-5.478a1.381 1.381 0 011.33-1.763zm9.55 5.148a.483.483 0 00.476-.61l-.34-2.764a.483.483 0 00-.61-.477l-7.104.873a.483.483 0 00-.476.61l.34 2.764a.483.483 0 00.609.477zM7.458 8.831a2.348 2.348 0 011.167.093 1.014 1.014 0 01.666.942 11.2 11.2 0 01-.067 1.167 32.966 32.966 0 01-.956 4.388l1.96 15.968a1.27 1.27 0 01-.237 1.052 1.238 1.238 0 01-.94.456 1.25 1.25 0 01-.998-.218 1.224 1.224 0 01-.512-.96L6.27 21.358q-.162.386-.309.693a1.466 1.466 0 01-1.076.631 1.768 1.768 0 01-1.21-.245 1.17 1.17 0 01-.53-.905 1.847 1.847 0 01.253-.923A41.862 41.862 0 006.659 9.795a1.193 1.193 0 01.8-.964zm21.84 1.883h3.58a.741.741 0 01.471.133q.179.13.179.586a.765.765 0 01-.114.488.636.636 0 01-.537.212h-3.579a.7.7 0 01-.489-.166.706.706 0 01-.163-.537.851.851 0 01.163-.6.808.808 0 01.489-.116zm-.277 2.392h4.1a.859.859 0 01.618.179.881.881 0 01.163.618.8.8 0 01-.146.521.742.742 0 01-.635.26h-4.1a.831.831 0 01-.586-.2.731.731 0 01-.195-.581.881.881 0 01.2-.618.879.879 0 01.581-.179zm.342 2.424h3.577a.825.825 0 01.537.13.643.643 0 01.228-.325 11.43 11.43 0 001.971-2.424.489.489 0 01.212-.13.633.633 0 01-.148-.391h-.845a.8.8 0 01-.555-.163.732.732 0 01-.163-.553.841.841 0 01.163-.553.8.8 0 01.555-.163h.845v-.13a.847.847 0 01.147-.521.78.78 0 01.618-.2q.472 0 .569.146a.706.706 0 01.212.569v.13h2.62v-.2a.847.847 0 01.147-.505.78.78 0 01.618-.2q.469 0 .569.146a.677.677 0 01.212.569v.2h1.058a.8.8 0 01.553.163.732.732 0 01.163.553.731.731 0 01-.13.488.76.76 0 01-.586.228h-1.058a.633.633 0 01-.163.456.845.845 0 01-.618.2.82.82 0 01-.6-.2.6.6 0 01-.163-.456h-2.621a.618.618 0 01-.163.407.63.63 0 01-.374.163.505.505 0 01.163.358.484.484 0 01-.065.244h1.592a2.572 2.572 0 01.081-.309.764.764 0 01.781-.456 1.248 1.248 0 01.586.114.543.543 0 01.26.472.7.7 0 01-.033.179h2.457a.52.52 0 01.586.6.763.763 0 01-.1.423.536.536 0 01-.488.228h-2.55v.521h2.359a.6.6 0 01.423.114.558.558 0 01.146.456.6.6 0 01-.1.391.526.526 0 01-.472.2H40.02v.521h2.359a.548.548 0 01.423.13.582.582 0 01.146.472.573.573 0 01-.1.374.509.509 0 01-.472.212H40.02v.5h2.555a.518.518 0 01.586.586q0 .651-.586.651h-6.72a1.151 1.151 0 01-1.3-1.3v-2.138a.7.7 0 01-.244.049.9.9 0 01-.618-.26q-.033-.033-.033-.049a.815.815 0 01-.13.488.729.729 0 01-.586.228h-3.581a.754.754 0 01-.553-.179.739.739 0 01-.163-.537.869.869 0 01.162-.57.865.865 0 01.554-.147zm9.112 3.173v-.5h-2.279v.244q0 .26.2.26zm0-1.692v-.521h-2.279v.521zm0-1.676v-.521h-2.279v.521zm-9.112 2.392h3.577a.766.766 0 01.553.163.732.732 0 01.163.553.8.8 0 01-.13.5.759.759 0 01-.586.212h-3.577a.8.8 0 01-.553-.163.732.732 0 01-.163-.545.841.841 0 01.163-.553.8.8 0 01.553-.167zm.377 2.278h2.73a1.043 1.043 0 011.188 1.172v2.343a1.043 1.043 0 01-1.188 1.171h-2.73a1.028 1.028 0 01-1.158-1.172v-2.343a1.028 1.028 0 011.158-1.171zm2.08 3.254q.277 0 .277-.244v-1.3a.244.244 0 00-.277-.277h-1.432q-.244 0-.244.277v1.3a.216.216 0 00.244.244zm2.8-2.847h7.306a1.206 1.206 0 01.569.114.576.576 0 01.26.472 1.3 1.3 0 01-.374.895 8.093 8.093 0 01-2.05 1.513 8.958 8.958 0 002.18.26q.781 0 .781.716a.825.825 0 01-.911.781 9.206 9.206 0 01-2.392-.358 13.209 13.209 0 01-1.5-.521 11.241 11.241 0 01-3.938.879.509.509 0 01-.472-.212.81.81 0 01-.179-.439.577.577 0 01.521-.651 14.165 14.165 0 002.489-.472 5.288 5.288 0 01-1.367-1.3 1.5 1.5 0 01-.26-.5h-.665q-.423-.033-.439-.586.016-.575.439-.591zm2.359 1.172a3.24 3.24 0 001.041.895q.309.179.618.325a6.748 6.748 0 001.855-1.025q0-.2-.065-.2z" fill="#00a8c1" stroke="#df4882" stroke-width="3"/><path d="M44.821 14.12l5.667-.199-.002-.069a1.07 1.07 0 01.215-.788 1.055 1.055 0 01.807-.272 1.139 1.139 0 01.84.197 1.05 1.05 0 01.288.79l.002.069 5.757-.202a.76.76 0 01.56.155.7.7 0 01.157.515.712.712 0 01-.104.473.678.678 0 01-.565.246l-5.756.202.03.832 4.923-.173a.728.728 0 01.505.139.612.612 0 01.155.463.79.79 0 01-.103.49.67.67 0 01-.514.226l-4.92.172.028.833 6.33-.222a.734.734 0 01.543.155.648.648 0 01.174.515.717.717 0 01-.122.49.716.716 0 01-.547.228l-14.652.513a.8.8 0 01-.525-.14.665.665 0 01-.192-.533.77.77 0 01.155-.544.8.8 0 01.515-.174l6.171-.216-.029-.832-4.976.174a.663.663 0 01-.49-.139.77.77 0 01-.158-.532.687.687 0 01.122-.474.663.663 0 01.48-.173l4.976-.174-.029-.832-5.667.199a.786.786 0 01-.545-.137.71.71 0 01-.179-.532.828.828 0 01.141-.543.786.786 0 01.534-.176zm2.15 6.452l9.797-.343q1.386-.049 1.433 1.269l.202 5.773a1.249 1.249 0 01-.36 1.124 2.248 2.248 0 01-1.341.394 9.364 9.364 0 01-2.995-.26.869.869 0 01-.508-.606q-.031-.9.66-.996a2.68 2.68 0 01.487.035 8.39 8.39 0 001.899.177.267.267 0 00.197-.307l-.033-.948-8.616.302.073 2.08a.862.862 0 01-.235.72 1.017 1.017 0 01-.686.216.947.947 0 01-.755-.22.97.97 0 01-.249-.651l-.224-6.394a1.158 1.158 0 011.255-1.365zm.778 4.348l8.617-.302-.03-.884-8.618.302zm-.075-2.15l8.617-.302-.024-.694a.184.184 0 00-.215-.2l-8.046.281q-.364.013-.357.22z" fill="#00a8c1" stroke="#df4882" stroke-width="2.999"/><path d="M67.515 10.191q.865.016.881.692v8.008a1.333 1.333 0 01-.409 1.054 2.726 2.726 0 01-1.541.377 4.419 4.419 0 01-1.51-.173 1 1 0 01-.63-.958.736.736 0 01.629-.818 2.729 2.729 0 01.377.031 6.519 6.519 0 001.07.094.27.27 0 00.267-.3v-7.315q.032-.676.866-.692zm-3.961 1.447a1.144 1.144 0 01.661.173.726.726 0 01.3.645 6.7 6.7 0 01-.425 1.494 26.048 26.048 0 01-2.222 4.294.824.824 0 01-.834.519 1.324 1.324 0 01-.676-.3.88.88 0 01-.2-.6 1.837 1.837 0 01.2-.6 23.794 23.794 0 002.5-5.112.678.678 0 01.696-.513zm7.943 0a.778.778 0 01.566.33 47.484 47.484 0 012.6 4.734 2.752 2.752 0 01.346 1.038.716.716 0 01-.267.629 1.051 1.051 0 01-.661.267.692.692 0 01-.692-.5 42.248 42.248 0 00-2.5-4.844 2.051 2.051 0 01-.33-.9.732.732 0 01.3-.566 1.136 1.136 0 01.635-.188zm.676 6.1a1.007 1.007 0 01.629.252.828.828 0 01.315.708 1.443 1.443 0 01-.315.676 16.3 16.3 0 01-3.869 2.957 26.4 26.4 0 01-5.395 2.171 7.227 7.227 0 01-1.935.425.831.831 0 01-.663-.236 1.321 1.321 0 01-.2-.708 1 1 0 01.5-.834 26.5 26.5 0 006.15-2.076 16.85 16.85 0 004.215-3 .685.685 0 01.566-.332zm6.261-2.945a1.361 1.361 0 01.695.11.622.622 0 01.353.597 2.063 2.063 0 01-.077.443q-.076.225-.152.463l8.468-.444a.74.74 0 01.534.118.675.675 0 01.205.546.851.851 0 01-.091.506.667.667 0 01-.572.28l-4.054.212.096 1.827 3.685-.193a.615.615 0 01.735.65q.04.76-.66.797l-3.684.193.12 2.297 4.636-.243a.835.835 0 01.549.117.689.689 0 01.189.533.874.874 0 01-.104.533.692.692 0 01-.558.264l-4.636.243.139 2.647a.668.668 0 01-.17.566.805.805 0 01-.604.237.742.742 0 01-.581-.175.761.761 0 01-.205-.546l-.139-2.646-5.93.31a.748.748 0 01-.535-.148.748.748 0 01-.204-.576.77.77 0 01.148-.55.846.846 0 01.516-.174l1.114-.058-.126-2.413a1.184 1.184 0 011.275-1.401l3.466-.182-.096-1.832-3.568.187-.185.39a14.958 14.958 0 01-1.104 1.861.847.847 0 01-.681.373 1.054 1.054 0 01-.712-.197.7.7 0 01-.285-.552.661.661 0 01.158-.36 13.941 13.941 0 002.13-4.1.675.675 0 01.502-.51zm4.037 8.484l-.12-2.297-2.94.154q-.278.015-.261.322l.104 1.99zm21.839-15.14a1.541 1.541 0 01.686.147.651.651 0 01.31.543q-.056.318-.467 1.657l6.2.109q1.361.023 1.33 1.788l-.175 10.019a1.073 1.073 0 01-.54 1.066 3.415 3.415 0 01-1.705.307 6.638 6.638 0 01-3.008-.588.931.931 0 01-.46-.681q.017-.958.758-1.013a2.049 2.049 0 01.57.11 8.372 8.372 0 002.294.41.283.283 0 00.274-.314l.158-9.029q.006-.319-.194-.322l-9.95-.174a.282.282 0 00-.325.313l-.185 10.577a.72.72 0 01-.28.634 1.134 1.134 0 01-.692.156.824.824 0 01-.652-.23.832.832 0 01-.209-.592l.19-10.899q.031-1.762 1.258-1.74l3.329.057q.232-.786.519-1.791a.97.97 0 01.965-.52zm-1.194 5.814l4.12.072a1.137 1.137 0 011.255 1.317l-.07 4.017a1.129 1.129 0 01-1.3 1.256L103 20.54a1.129 1.129 0 01-1.255-1.3l.07-4.018a1.137 1.137 0 011.3-1.272zm3.004 5.03a.476.476 0 00.547-.529l.04-2.286a.476.476 0 00-.528-.548l-2.082-.036a.468.468 0 00-.53.529l-.04 2.287a.468.468 0 00.511.547zm8.02-11.963l3.784-.198-.022-.41a1.446 1.446 0 01.217-.93 1.37 1.37 0 011.044-.368q.799-.042 1.001.189a1.159 1.159 0 01.437.968l.022.41 6.628-.348-.022-.41a1.363 1.363 0 01.242-.93 1.37 1.37 0 011.042-.37q.799-.041 1.001.19a1.159 1.159 0 01.438.968l.021.41 4.05-.213a1.377 1.377 0 01.904.194 1.224 1.224 0 01.313.902 1.194 1.194 0 01-.177.782 1.141 1.141 0 01-.92.435l-4.048.212.04.772a1.113 1.113 0 01-.266.908l-.115.127a2.728 2.728 0 011.239.564q2.156 1.965 4.666 4.178a1.2 1.2 0 01.31.854 1.316 1.316 0 01-.339.912 1.158 1.158 0 01-.825.406 1.58 1.58 0 01-1.182-.422 20.776 20.776 0 01-3.21-3.143q-.569-.72-.858-.704-.314.016-.673.542a37.558 37.558 0 01-2.852 3.679 1.932 1.932 0 01-1.26.79 1.453 1.453 0 01-1.063-.427 1.469 1.469 0 01-.331-.784 1.012 1.012 0 01.226-.759q2.168-2.434 4.136-5.002a2.211 2.211 0 01.607-.418 1.1 1.1 0 01-.57-.285 1.07 1.07 0 01-.36-.875l-.04-.77-6.63.348.04.771a1.113 1.113 0 01-.267.908.982.982 0 01-.611.347 1.1 1.1 0 01.2.59l.072 1.377 2.99-.156a1.377 1.377 0 01.904.194 1.175 1.175 0 01.312.901 1.094 1.094 0 01-.177.759 1.111 1.111 0 01-.919.458l-5.109.268.04.771q.04.747.051 1.423l3.568-.187a2.489 2.489 0 011.564.33q.501.335.568 1.613.152 2.896.162 4.462-.049 2.299-.832 3.04a2.309 2.309 0 01-1.58.737 5.708 5.708 0 01-3.021-.443 1.288 1.288 0 01-.567-1.13 1.4 1.4 0 01.325-.718 1 1 0 01.685-.301 1.819 1.819 0 01.512.073 4.213 4.213 0 001.438.24q.627-.034.669-1.075.005-1.281-.153-4.298-.016-.29-.208-.28l-3.182.167a8.683 8.683 0 01-.094.971 13.371 13.371 0 01-2.506 6.609 1.655 1.655 0 01-.846.455.983.983 0 01-.736-.203 1.073 1.073 0 01-.375-.707 1.929 1.929 0 01.168-.927 14.9 14.9 0 001.946-5.781 36.619 36.619 0 00.01-3.94l-.04-.771-1.446.076a1.18 1.18 0 01-.883-.245 1.144 1.144 0 01-.307-.854 1.386 1.386 0 01.216-.93 1.333 1.333 0 01.856-.285l3.274-.172-.072-1.374a1.281 1.281 0 01.34-.912.935.935 0 01.542-.27 1.4 1.4 0 01-.18-.668l-.041-.771-3.784.198a1.174 1.174 0 01-.884-.268 1.007 1.007 0 01-.334-.828 1.307 1.307 0 01.242-.93 1.394 1.394 0 01.855-.288zm13.833 9.402a2.093 2.093 0 011.001.189 37.049 37.049 0 014.685 2.703 1.523 1.523 0 01.426.751 1.25 1.25 0 01-.226.761 1.522 1.522 0 01-.772.548 2.007 2.007 0 01-.899-.12 3.9 3.9 0 01-.825-.464 42.9 42.9 0 00-3.698-2.32 1.684 1.684 0 01-.353-.272 1.021 1.021 0 01-.35-.659 1.169 1.169 0 011.006-1.116zm-1.598 4.555a3.8 3.8 0 011.615.375 30.9 30.9 0 015.742 3.493 1.073 1.073 0 01.551.841 1.093 1.093 0 01-.202.736 1.213 1.213 0 01-.798.476 1.95 1.95 0 01-1.3-.39 59.564 59.564 0 00-5.988-3.578 1.207 1.207 0 01-.624-.838.973.973 0 01.27-.836 1.02 1.02 0 01.734-.28zm32.492-11.813l4.408-.23a.9.9 0 01.65.146q.25.149.277.687a1.176 1.176 0 01-.104.688.889.889 0 01-.726.32l-4.409.23a.885.885 0 01-.633-.187.856.856 0 01-.302-.726.862.862 0 01.226-.734.939.939 0 01.613-.194zm-.58 2.763l5.93-.31a1.06 1.06 0 01.773.18 1.05 1.05 0 01.238.73 1.2 1.2 0 01-.143.731.891.891 0 01-.764.382l-5.928.31a.976.976 0 01-.734-.222 1.065 1.065 0 01-.283-.788 1.055 1.055 0 01.202-.753 1.084 1.084 0 01.71-.26zm.879 2.948l4.328-.226a1.055 1.055 0 01.709.144.963.963 0 01.217.69 1 1 0 01-.13.607.864.864 0 01-.706.318l-4.326.227a.943.943 0 01-.673-.186.821.821 0 01-.258-.645 1 1 0 01.184-.711 1.081 1.081 0 01.655-.218zm.146 2.786l4.328-.227a.979.979 0 01.71.163.97.97 0 01.216.671.989.989 0 01-.128.63.9.9 0 01-.708.298l-4.326.227a1 1 0 01-.671-.165.85.85 0 01-.26-.668.974.974 0 01.185-.693 1 1 0 01.654-.235zm.151 2.886l4.168-.219a1.153 1.153 0 011.367 1.23l.176 3.367a1.136 1.136 0 01-1.232 1.33l-4.168.218a1.117 1.117 0 01-1.33-1.19l-.176-3.367a1.136 1.136 0 011.195-1.368zm3.441 3.919a.266.266 0 00.284-.315l-.084-1.604q-.017-.32-.317-.305l-2.264.119q-.3.015-.283.336l.084 1.603a.266.266 0 00.315.284zm4.24-15.736a1.611 1.611 0 01.77.121.767.767 0 01.378.703 4.065 4.065 0 01-.05.586 16.336 16.336 0 01-.747 2.612l5.45-.286a1.33 1.33 0 01.282.005q-.451-.978-.937-2.16a.56.56 0 00-.601-.35l-1.984.103a.986.986 0 01-.674-.206 1.134 1.134 0 01-.259-.71.855.855 0 01.206-.674.829.829 0 01.63-.254l2.564-.135q1.183-.062 1.931 1.567.982 2.24 1.987 4.176a1.371 1.371 0 01.173.614.838.838 0 01-.21.594 1.149 1.149 0 01-.767.34 1.055 1.055 0 01-.753-.201q-.178-.313-.336-.666l.159 3.026q.058 1.099-1.085 1.158l-.541.029.273 5.21q.018.341.317.325l.42-.022q.478-.105.545-.73a11.523 11.523 0 00.027-1.789.6.6 0 01.256-.476 1.561 1.561 0 01.434-.143 2.487 2.487 0 01.625.027.754.754 0 01.46.74 10.559 10.559 0 01-.15 2.862 1.635 1.635 0 01-1.299 1.314l-2.1.11q-1.268-.034-1.351-1.617l-.3-5.71-1.163.061a14.878 14.878 0 01-.286 3.37 8.029 8.029 0 01-2.033 3.764 1.117 1.117 0 01-.72.439 1.113 1.113 0 01-.817-.319 1.074 1.074 0 01-.336-.665.944.944 0 01.262-.737 6.979 6.979 0 001.706-2.722 8.966 8.966 0 00.384-3.034l-.284.015q-1.142.06-1.2-1.039l-.126-2.408a.963.963 0 01-.683.337 1.152 1.152 0 01-.796-.22.713.713 0 01-.313-.607.877.877 0 01.159-.43 20.533 20.533 0 001.952-5.286.756.756 0 01.55-.612zm4.77 8.211q.38-.02.36-.42l-.095-1.785a.337.337 0 00-.4-.36l-3.147.165a.337.337 0 00-.36.4l.093 1.783q.021.4.402.38z" fill="#00a8c1" stroke="#df4882" stroke-width="3"/><path d="M180.862 1.953l26.832 2.831a2.081 2.081 0 011.365.526 1.865 1.865 0 01.232 1.41 2.201 2.201 0 01-.446 1.27 1.76 1.76 0 01-1.538.462l-11.514-1.215a35.186 35.186 0 01-2.864 4.48 2.73 2.73 0 01.45.013 2.001 2.001 0 011.419.67 1.981 1.981 0 01.423 1.569l-1.91 18.092a2.314 2.314 0 01-.517 1.296 1.895 1.895 0 01-1.76.577 1.901 1.901 0 01-1.496-.92 2.062 2.062 0 01-.305-1.384l1.855-17.58q-.594.7-1.15 1.37a50.146 50.146 0 01-10.163 8.594 3.207 3.207 0 01-2.04.617 1.838 1.838 0 01-1.118-.5 2.037 2.037 0 01-.815-1.819 2.362 2.362 0 01.508-1.194 59.874 59.874 0 009.884-7.307 40.428 40.428 0 005.315-7.027l-11.034-1.165a1.877 1.877 0 01-1.324-.59 2.001 2.001 0 01-.258-1.517 2.058 2.058 0 01.558-1.327 2.101 2.101 0 011.41-.232zm18.58 10.103a1.562 1.562 0 011.157.85 96.163 96.163 0 016.667 11.03 4.355 4.355 0 01.793 2.335 1.569 1.569 0 01-.727 1.31 2.301 2.301 0 01-1.5.43 1.845 1.845 0 01-1.696-1.323A82.697 82.697 0 00198 15.543a3.848 3.848 0 01-.757-2.021 1.478 1.478 0 01.781-1.165 2.401 2.401 0 011.417-.301zM137.36 27.86q-.068.645-.755.573-.421-.045-.777-.706a9.755 9.755 0 01-.964-5.65 9.623 9.623 0 012.135-5.308 3.729 3.729 0 01.397-.398.712.712 0 01.497-.118.7.7 0 01.472.234.64.64 0 01.154.456 1.027 1.027 0 01-.245.57 9.089 9.089 0 00-1.054 1.79 9.284 9.284 0 00-.876 2.926 9.357 9.357 0 00.236 3.144 7.704 7.704 0 00.653 1.906.941.941 0 01.127.58zm8.534-11.556l6.866.724a.8.8 0 01.504.195.686.686 0 01.098.55.65.65 0 01-.187.434.626.626 0 01-.558.169l-1.87-.198-.107 1.01 1.306.138a.986.986 0 01.987 1.225l-.308 2.918a.992.992 0 01-1.223 1.009l-2.442-.258.013.016a.866.866 0 01.118.622l-.043.407 2.512.265a.8.8 0 01.518.196.707.707 0 01.086.535.69.69 0 01-.176.449.663.663 0 01-.569.153l-2.51-.265-.124 1.175 3.03.32a.721.721 0 01.503.21.738.738 0 01.086.533.923.923 0 01-.166.494.667.667 0 01-.57.167l-7.648-.807a.61.61 0 01-.597-.8.741.741 0 01.223-.502.762.762 0 01.522-.1l3.03.319.125-1.18-2.357-.248a.823.823 0 01-.222-.051.266.266 0 01.005.086 1.044 1.044 0 01-.23.57.605.605 0 01-.596.264q-.28-.03-.638-.535a7.104 7.104 0 01-.752-1.342q-.116.29-.242.542a8.822 8.822 0 01-1.862 2.598.941.941 0 01-.58.123.55.55 0 01-.345-.238.626.626 0 01-.065-.73 2.128 2.128 0 01.385-.555 9.185 9.185 0 001.666-3.016 14.167 14.167 0 00.565-2.792l.52-4.937a.518.518 0 01.195-.363.773.773 0 01.537-.127.986.986 0 01.505.195.5.5 0 01.167.443l-.356 3.367a18.195 18.195 0 001.014-1.551.73.73 0 01.196-.249.56.56 0 01.397-.128 1.05 1.05 0 01.353.15.64.64 0 01.312.545.654.654 0 01-.102.29 1.912 1.912 0 01.469-.006l1.293.137.107-1.017-1.91-.202a.72.72 0 01-.488-.221.67.67 0 01-.096-.522.81.81 0 01.207-.516.815.815 0 01.52-.087zm-.904 3.735q-.182.25-.38.513a13.48 13.48 0 01-1.25 1.358q-.1.684-.198 1.195a8.398 8.398 0 001.203 2.315.78.78 0 01.221-.487.815.815 0 01.52-.087l2.358.249.043-.407a.812.812 0 01.244-.57q.03-.025.044-.024l-2.075-.219a1 1 0 01-1.004-1.24zm2.303.1l-.701-.073q-.225-.024-.247.187l-.117 1.107a.164.164 0 01.032-.038 3.277 3.277 0 001.031-1.182zm-1.111 1.657l-.064.603q-.022.211.203.235l4.77.503a.187.187 0 00.233-.188l.047-.45-1.236-.13q-1.067-.112-.984-.898l.118-1.123-.715-.075a.464.464 0 01-.026.11 3.226 3.226 0 01-1.124 1.642 1.2 1.2 0 01-.645.201.65.65 0 01-.434-.187.777.777 0 01-.145-.243zm2.61-2.803l.616.065.107-1.01-.617-.066zm2.697 2.37l.06-.562a.187.187 0 00-.19-.233l-.855-.09-.053.505q-.028.267.27.298zm-10.08-3.277a.952.952 0 01.464.163.511.511 0 01.135.468q-.01.1-.093.472-.511 1.99-.903 3.055a.473.473 0 01-.486.303.933.933 0 01-.584-.245.6.6 0 01-.137-.456 5.052 5.052 0 01.195-.633q.322-.902.78-2.684a.583.583 0 01.628-.443zm16.34 6.406a9.755 9.755 0 01-2.122 5.323q-.486.573-.907.528-.688-.072-.62-.718a.941.941 0 01.242-.542 7.704 7.704 0 001.046-1.72 9.357 9.357 0 00.887-3.025 9.284 9.284 0 00-.246-3.044 9.089 9.089 0 00-.657-1.97 1.027 1.027 0 01-.12-.61.621.621 0 01.257-.412.648.648 0 01.495-.131.712.712 0 01.46.218 2.047 2.047 0 01.305.472 9.623 9.623 0 01.98 5.63z" fill="#00a8c1" stroke="#df4882" stroke-width="3.002"/><path d="M11.848 9.552l10.465-1.285a1.381 1.381 0 011.719 1.389l.672 5.478a1.358 1.358 0 01-1.337 1.711l-4.057.498.257 2.092 6.02-.74a1.485 1.485 0 01.988.141 1.225 1.225 0 01.402.921 1.127 1.127 0 01-1.089 1.393l-4.004.492a35.594 35.594 0 005.636 5.315 1.183 1.183 0 01.55.85.95.95 0 01-.415.89 1.9 1.9 0 01-1.02.44 2.709 2.709 0 01-1.981-.966 52.4 52.4 0 01-4.664-5.302l.885 7.209a1.3 1.3 0 01-.19 1.02 1.32 1.32 0 01-.962.484 1.27 1.27 0 01-1.052-.237 1.288 1.288 0 01-.456-.94l-.888-7.231a21.4 21.4 0 01-3.842 7.37 1.842 1.842 0 01-1.174.695 1.551 1.551 0 01-.981-.3 1 1 0 01-.399-.685 1.079 1.079 0 01.127-.672 28.326 28.326 0 004.033-7.104l-3.698.454a1.407 1.407 0 01-.965-.17 1.209 1.209 0 01-.427-.918 1.369 1.369 0 01.193-.993 1.5 1.5 0 01.898-.376l5.814-.714-.257-2.09-3.748.46a1.358 1.358 0 01-1.71-1.338l-.673-5.478a1.381 1.381 0 011.33-1.763zm9.55 5.148a.483.483 0 00.476-.61l-.34-2.764a.483.483 0 00-.61-.477l-7.104.873a.483.483 0 00-.476.61l.34 2.764a.483.483 0 00.609.477zM7.458 8.831a2.348 2.348 0 011.167.093 1.014 1.014 0 01.666.942 11.2 11.2 0 01-.067 1.167 32.966 32.966 0 01-.956 4.388l1.96 15.968a1.27 1.27 0 01-.237 1.052 1.238 1.238 0 01-.94.456 1.25 1.25 0 01-.998-.218 1.224 1.224 0 01-.512-.96L6.27 21.358q-.162.386-.309.693a1.466 1.466 0 01-1.076.631 1.768 1.768 0 01-1.21-.245 1.17 1.17 0 01-.53-.905 1.847 1.847 0 01.253-.923A41.862 41.862 0 006.659 9.795a1.193 1.193 0 01.8-.964zm21.84 1.883h3.58a.741.741 0 01.471.133q.179.13.179.586a.765.765 0 01-.114.488.636.636 0 01-.537.212h-3.579a.7.7 0 01-.489-.166.706.706 0 01-.163-.537.851.851 0 01.163-.6.808.808 0 01.489-.116zm-.277 2.392h4.1a.859.859 0 01.618.179.881.881 0 01.163.618.8.8 0 01-.146.521.742.742 0 01-.635.26h-4.1a.831.831 0 01-.586-.2.731.731 0 01-.195-.581.881.881 0 01.2-.618.879.879 0 01.581-.179zm.342 2.424h3.577a.825.825 0 01.537.13.643.643 0 01.228-.325 11.43 11.43 0 001.971-2.424.489.489 0 01.212-.13.633.633 0 01-.148-.391h-.845a.8.8 0 01-.555-.163.732.732 0 01-.163-.553.841.841 0 01.163-.553.8.8 0 01.555-.163h.845v-.13a.847.847 0 01.147-.521.78.78 0 01.618-.2q.472 0 .569.146a.706.706 0 01.212.569v.13h2.62v-.2a.847.847 0 01.147-.505.78.78 0 01.618-.2q.469 0 .569.146a.677.677 0 01.212.569v.2h1.058a.8.8 0 01.553.163.732.732 0 01.163.553.731.731 0 01-.13.488.76.76 0 01-.586.228h-1.058a.633.633 0 01-.163.456.845.845 0 01-.618.2.82.82 0 01-.6-.2.6.6 0 01-.163-.456h-2.621a.618.618 0 01-.163.407.63.63 0 01-.374.163.505.505 0 01.163.358.484.484 0 01-.065.244h1.592a2.572 2.572 0 01.081-.309.764.764 0 01.781-.456 1.248 1.248 0 01.586.114.543.543 0 01.26.472.7.7 0 01-.033.179h2.457a.52.52 0 01.586.6.763.763 0 01-.1.423.536.536 0 01-.488.228h-2.55v.521h2.359a.6.6 0 01.423.114.558.558 0 01.146.456.6.6 0 01-.1.391.526.526 0 01-.472.2H40.02v.521h2.359a.548.548 0 01.423.13.582.582 0 01.146.472.573.573 0 01-.1.374.509.509 0 01-.472.212H40.02v.5h2.555a.518.518 0 01.586.586q0 .651-.586.651h-6.72a1.151 1.151 0 01-1.3-1.3v-2.138a.7.7 0 01-.244.049.9.9 0 01-.618-.26q-.033-.033-.033-.049a.815.815 0 01-.13.488.729.729 0 01-.586.228h-3.581a.754.754 0 01-.553-.179.739.739 0 01-.163-.537.869.869 0 01.162-.57.865.865 0 01.554-.147zm9.112 3.173v-.5h-2.279v.244q0 .26.2.26zm0-1.692v-.521h-2.279v.521zm0-1.676v-.521h-2.279v.521zm-9.112 2.392h3.577a.766.766 0 01.553.163.732.732 0 01.163.553.8.8 0 01-.13.5.759.759 0 01-.586.212h-3.577a.8.8 0 01-.553-.163.732.732 0 01-.163-.545.841.841 0 01.163-.553.8.8 0 01.553-.167zm.377 2.278h2.73a1.043 1.043 0 011.188 1.172v2.343a1.043 1.043 0 01-1.188 1.171h-2.73a1.028 1.028 0 01-1.158-1.172v-2.343a1.028 1.028 0 011.158-1.171zm2.08 3.254q.277 0 .277-.244v-1.3a.244.244 0 00-.277-.277h-1.432q-.244 0-.244.277v1.3a.216.216 0 00.244.244zm2.8-2.847h7.306a1.206 1.206 0 01.569.114.576.576 0 01.26.472 1.3 1.3 0 01-.374.895 8.093 8.093 0 01-2.05 1.513 8.958 8.958 0 002.18.26q.781 0 .781.716a.825.825 0 01-.911.781 9.206 9.206 0 01-2.392-.358 13.209 13.209 0 01-1.5-.521 11.241 11.241 0 01-3.938.879.509.509 0 01-.472-.212.81.81 0 01-.179-.439.577.577 0 01.521-.651 14.165 14.165 0 002.489-.472 5.288 5.288 0 01-1.367-1.3 1.5 1.5 0 01-.26-.5h-.665q-.423-.033-.439-.586.016-.575.439-.591zm2.359 1.172a3.24 3.24 0 001.041.895q.309.179.618.325a6.748 6.748 0 001.855-1.025q0-.2-.065-.2zm7.842-7.464l5.667-.199-.002-.069a1.07 1.07 0 01.215-.788 1.055 1.055 0 01.807-.272 1.139 1.139 0 01.84.197 1.05 1.05 0 01.288.79l.002.069 5.757-.202a.76.76 0 01.56.155.7.7 0 01.157.515.712.712 0 01-.104.473.678.678 0 01-.565.246l-5.756.202.03.832 4.923-.173a.728.728 0 01.505.139.612.612 0 01.155.463.79.79 0 01-.103.49.67.67 0 01-.514.226l-4.92.172.028.833 6.33-.222a.734.734 0 01.543.155.648.648 0 01.174.515.717.717 0 01-.122.49.716.716 0 01-.547.228l-14.652.513a.8.8 0 01-.525-.14.665.665 0 01-.192-.533.77.77 0 01.155-.544.8.8 0 01.515-.174l6.171-.216-.029-.832-4.976.174a.663.663 0 01-.49-.139.77.77 0 01-.158-.532.687.687 0 01.122-.474.663.663 0 01.48-.173l4.976-.174-.029-.832-5.667.199a.786.786 0 01-.545-.137.71.71 0 01-.179-.532.828.828 0 01.141-.543.786.786 0 01.534-.176zm2.15 6.452l9.797-.343q1.386-.049 1.433 1.269l.202 5.773a1.249 1.249 0 01-.36 1.124 2.248 2.248 0 01-1.341.394 9.364 9.364 0 01-2.995-.26.869.869 0 01-.508-.606q-.031-.9.66-.996a2.68 2.68 0 01.487.035 8.39 8.39 0 001.899.177.267.267 0 00.197-.307l-.033-.948-8.616.302.073 2.08a.862.862 0 01-.235.72 1.017 1.017 0 01-.686.216.947.947 0 01-.755-.22.97.97 0 01-.249-.651l-.224-6.394a1.158 1.158 0 011.255-1.365zm.778 4.348l8.617-.302-.03-.884-8.618.302zm-.075-2.15l8.617-.302-.024-.694a.184.184 0 00-.215-.2l-8.046.281q-.364.013-.357.22zm19.841-12.579q.865.016.881.692v8.008a1.333 1.333 0 01-.409 1.054 2.726 2.726 0 01-1.541.377 4.419 4.419 0 01-1.51-.173 1 1 0 01-.63-.958.736.736 0 01.629-.818 2.729 2.729 0 01.377.031 6.519 6.519 0 001.07.094.27.27 0 00.267-.3v-7.315q.032-.676.866-.692zm-3.961 1.447a1.144 1.144 0 01.661.173.726.726 0 01.3.645 6.7 6.7 0 01-.425 1.494 26.048 26.048 0 01-2.222 4.294.824.824 0 01-.834.519 1.324 1.324 0 01-.676-.3.88.88 0 01-.2-.6 1.837 1.837 0 01.2-.6 23.794 23.794 0 002.5-5.112.678.678 0 01.696-.513zm7.943 0a.778.778 0 01.566.33 47.484 47.484 0 012.6 4.734 2.752 2.752 0 01.346 1.038.716.716 0 01-.267.629 1.051 1.051 0 01-.661.267.692.692 0 01-.692-.5 42.248 42.248 0 00-2.5-4.844 2.051 2.051 0 01-.33-.9.732.732 0 01.3-.566 1.136 1.136 0 01.635-.188zm.676 6.1a1.007 1.007 0 01.629.252.828.828 0 01.315.708 1.443 1.443 0 01-.315.676 16.3 16.3 0 01-3.869 2.957 26.4 26.4 0 01-5.395 2.171 7.227 7.227 0 01-1.935.425.831.831 0 01-.663-.236 1.321 1.321 0 01-.2-.708 1 1 0 01.5-.834 26.5 26.5 0 006.15-2.076 16.85 16.85 0 004.215-3 .685.685 0 01.566-.332z" fill="#fff"/><path d="M94.794 26.369a2.684 2.684 0 01-1.321 2.3 1.182 1.182 0 01-.661.236.471.471 0 01-.346-.142.373.373 0 01-.142-.283.6.6 0 01.33-.519q.771-.55.771-.771a.083.083 0 00-.094-.094.612.612 0 00-.173.047 1.164 1.164 0 01-.362.047 1.125 1.125 0 01-.865-.377 1.189 1.189 0 01-.346-.853q0-1.431 1.557-1.431a1.513 1.513 0 011.211.535 1.91 1.91 0 01.441 1.305z" fill="#00a8c1" stroke="#df4882" stroke-width="3"/><path d="M94.794 26.369a2.684 2.684 0 01-1.321 2.3 1.182 1.182 0 01-.661.236.471.471 0 01-.346-.142.373.373 0 01-.142-.283.6.6 0 01.33-.519q.771-.55.771-.771a.083.083 0 00-.094-.094.612.612 0 00-.173.047 1.164 1.164 0 01-.362.047 1.125 1.125 0 01-.865-.377 1.189 1.189 0 01-.346-.853q0-1.431 1.557-1.431a1.513 1.513 0 011.211.535 1.91 1.91 0 01.441 1.305z" fill="#fff"/><path d="M211.671 32.201a2.684 2.684 0 01-1.321 2.3 1.182 1.182 0 01-.661.236.471.471 0 01-.346-.142.373.373 0 01-.142-.283.6.6 0 01.33-.519q.771-.55.771-.771a.083.083 0 00-.094-.094.612.612 0 00-.173.047 1.164 1.164 0 01-.362.047 1.125 1.125 0 01-.865-.377 1.189 1.189 0 01-.346-.853q0-1.431 1.557-1.431a1.513 1.513 0 011.211.535 1.91 1.91 0 01.441 1.305z" fill="#00a8c1" stroke="#df4882" stroke-width="3"/><path d="M211.671 32.201a2.684 2.684 0 01-1.321 2.3 1.182 1.182 0 01-.661.236.471.471 0 01-.346-.142.373.373 0 01-.142-.283.6.6 0 01.33-.519q.771-.55.771-.771a.083.083 0 00-.094-.094.612.612 0 00-.173.047 1.164 1.164 0 01-.362.047 1.125 1.125 0 01-.865-.377 1.189 1.189 0 01-.346-.853q0-1.431 1.557-1.431a1.513 1.513 0 011.211.535 1.91 1.91 0 01.441 1.305zM78.434 14.793a1.361 1.361 0 01.695.11.622.622 0 01.353.597 2.063 2.063 0 01-.077.443q-.076.225-.152.463l8.468-.444a.74.74 0 01.534.118.675.675 0 01.205.546.851.851 0 01-.091.506.667.667 0 01-.572.28l-4.054.212.096 1.827 3.685-.193a.615.615 0 01.735.65q.04.76-.66.797l-3.684.193.12 2.297 4.636-.243a.835.835 0 01.549.117.689.689 0 01.189.533.874.874 0 01-.104.533.692.692 0 01-.558.264l-4.636.243.139 2.647a.668.668 0 01-.17.566.805.805 0 01-.604.237.742.742 0 01-.581-.175.761.761 0 01-.205-.546l-.139-2.646-5.93.31a.748.748 0 01-.535-.148.748.748 0 01-.204-.576.77.77 0 01.148-.55.846.846 0 01.516-.174l1.114-.058-.126-2.413a1.184 1.184 0 011.275-1.401l3.466-.182-.096-1.832-3.568.187-.185.39a14.958 14.958 0 01-1.104 1.861.847.847 0 01-.681.373 1.054 1.054 0 01-.712-.197.7.7 0 01-.285-.552.661.661 0 01.158-.36 13.941 13.941 0 002.13-4.1.675.675 0 01.502-.51zm4.037 8.484l-.12-2.297-2.94.154q-.278.015-.261.322l.104 1.99zm21.839-15.14a1.541 1.541 0 01.686.147.651.651 0 01.31.543q-.056.318-.467 1.657l6.2.109q1.361.023 1.33 1.788l-.175 10.019a1.073 1.073 0 01-.54 1.066 3.415 3.415 0 01-1.705.307 6.638 6.638 0 01-3.008-.588.931.931 0 01-.46-.681q.017-.958.758-1.013a2.049 2.049 0 01.57.11 8.372 8.372 0 002.294.41.283.283 0 00.274-.314l.158-9.029q.006-.319-.194-.322l-9.95-.174a.282.282 0 00-.325.313l-.185 10.577a.72.72 0 01-.28.634 1.134 1.134 0 01-.692.156.824.824 0 01-.652-.23.832.832 0 01-.209-.592l.19-10.899q.031-1.762 1.258-1.74l3.329.057q.232-.786.519-1.791a.97.97 0 01.965-.52zm-1.194 5.814l4.12.072a1.137 1.137 0 011.255 1.317l-.07 4.017a1.129 1.129 0 01-1.3 1.256L103 20.54a1.129 1.129 0 01-1.255-1.3l.07-4.018a1.137 1.137 0 011.3-1.272zm3.004 5.03a.476.476 0 00.547-.529l.04-2.286a.476.476 0 00-.528-.548l-2.082-.036a.468.468 0 00-.53.529l-.04 2.287a.468.468 0 00.511.547zm8.02-11.963l3.784-.198-.022-.41a1.446 1.446 0 01.217-.93 1.37 1.37 0 011.044-.368q.799-.042 1.001.189a1.159 1.159 0 01.437.968l.022.41 6.628-.348-.022-.41a1.363 1.363 0 01.242-.93 1.37 1.37 0 011.042-.37q.799-.041 1.001.19a1.159 1.159 0 01.438.968l.021.41 4.05-.213a1.377 1.377 0 01.904.194 1.224 1.224 0 01.313.902 1.194 1.194 0 01-.177.782 1.141 1.141 0 01-.92.435l-4.048.212.04.772a1.113 1.113 0 01-.266.908l-.115.127a2.728 2.728 0 011.239.564q2.156 1.965 4.666 4.178a1.2 1.2 0 01.31.854 1.316 1.316 0 01-.339.912 1.158 1.158 0 01-.825.406 1.58 1.58 0 01-1.182-.422 20.776 20.776 0 01-3.21-3.143q-.569-.72-.858-.704-.314.016-.673.542a37.558 37.558 0 01-2.852 3.679 1.932 1.932 0 01-1.26.79 1.453 1.453 0 01-1.063-.427 1.469 1.469 0 01-.331-.784 1.012 1.012 0 01.226-.759q2.168-2.434 4.136-5.002a2.211 2.211 0 01.607-.418 1.1 1.1 0 01-.57-.285 1.07 1.07 0 01-.36-.875l-.04-.77-6.63.348.04.771a1.113 1.113 0 01-.267.908.982.982 0 01-.611.347 1.1 1.1 0 01.2.59l.072 1.377 2.99-.156a1.377 1.377 0 01.904.194 1.175 1.175 0 01.312.901 1.094 1.094 0 01-.177.759 1.111 1.111 0 01-.919.458l-5.109.268.04.771q.04.747.051 1.423l3.568-.187a2.489 2.489 0 011.564.33q.501.335.568 1.613.152 2.896.162 4.462-.049 2.299-.832 3.04a2.309 2.309 0 01-1.58.737 5.708 5.708 0 01-3.021-.443 1.288 1.288 0 01-.567-1.13 1.4 1.4 0 01.325-.718 1 1 0 01.685-.301 1.819 1.819 0 01.512.073 4.213 4.213 0 001.438.24q.627-.034.669-1.075.005-1.281-.153-4.298-.016-.29-.208-.28l-3.182.167a8.683 8.683 0 01-.094.971 13.371 13.371 0 01-2.506 6.609 1.655 1.655 0 01-.846.455.983.983 0 01-.736-.203 1.073 1.073 0 01-.375-.707 1.929 1.929 0 01.168-.927 14.9 14.9 0 001.946-5.781 36.619 36.619 0 00.01-3.94l-.04-.771-1.446.076a1.18 1.18 0 01-.883-.245 1.144 1.144 0 01-.307-.854 1.386 1.386 0 01.216-.93 1.333 1.333 0 01.856-.285l3.274-.172-.072-1.374a1.281 1.281 0 01.34-.912.935.935 0 01.542-.27 1.4 1.4 0 01-.18-.668l-.041-.771-3.784.198a1.174 1.174 0 01-.884-.268 1.007 1.007 0 01-.334-.828 1.307 1.307 0 01.242-.93 1.394 1.394 0 01.855-.288zm13.833 9.402a2.093 2.093 0 011.001.189 37.049 37.049 0 014.685 2.703 1.523 1.523 0 01.426.751 1.25 1.25 0 01-.226.761 1.522 1.522 0 01-.772.548 2.007 2.007 0 01-.899-.12 3.9 3.9 0 01-.825-.464 42.9 42.9 0 00-3.698-2.32 1.684 1.684 0 01-.353-.272 1.021 1.021 0 01-.35-.659 1.169 1.169 0 011.006-1.116zm-1.598 4.555a3.8 3.8 0 011.615.375 30.9 30.9 0 015.742 3.493 1.073 1.073 0 01.551.841 1.093 1.093 0 01-.202.736 1.213 1.213 0 01-.798.476 1.95 1.95 0 01-1.3-.39 59.564 59.564 0 00-5.988-3.578 1.207 1.207 0 01-.624-.838.973.973 0 01.27-.836 1.02 1.02 0 01.734-.28zm32.492-11.813l4.408-.23a.9.9 0 01.65.146q.25.149.277.687a1.176 1.176 0 01-.104.688.889.889 0 01-.726.32l-4.409.23a.885.885 0 01-.633-.187.856.856 0 01-.302-.726.862.862 0 01.226-.734.939.939 0 01.613-.194zm-.58 2.763l5.93-.31a1.06 1.06 0 01.773.18 1.05 1.05 0 01.238.73 1.2 1.2 0 01-.143.731.891.891 0 01-.764.382l-5.928.31a.976.976 0 01-.734-.222 1.065 1.065 0 01-.283-.788 1.055 1.055 0 01.202-.753 1.084 1.084 0 01.71-.26zm.879 2.948l4.328-.226a1.055 1.055 0 01.709.144.963.963 0 01.217.69 1 1 0 01-.13.607.864.864 0 01-.706.318l-4.326.227a.943.943 0 01-.673-.186.821.821 0 01-.258-.645 1 1 0 01.184-.711 1.081 1.081 0 01.655-.218zm.146 2.786l4.328-.227a.979.979 0 01.71.163.97.97 0 01.216.671.989.989 0 01-.128.63.9.9 0 01-.708.298l-4.326.227a1 1 0 01-.671-.165.85.85 0 01-.26-.668.974.974 0 01.185-.693 1 1 0 01.654-.235zm.151 2.886l4.168-.219a1.153 1.153 0 011.367 1.23l.176 3.367a1.136 1.136 0 01-1.232 1.33l-4.168.218a1.117 1.117 0 01-1.33-1.19l-.176-3.367a1.136 1.136 0 011.195-1.368zm3.441 3.919a.266.266 0 00.284-.315l-.084-1.604q-.017-.32-.317-.305l-2.264.119q-.3.015-.283.336l.084 1.603a.266.266 0 00.315.284zm4.24-15.736a1.611 1.611 0 01.77.121.767.767 0 01.378.703 4.065 4.065 0 01-.05.586 16.336 16.336 0 01-.747 2.612l5.45-.286a1.33 1.33 0 01.282.005q-.451-.978-.937-2.16a.56.56 0 00-.601-.35l-1.984.103a.986.986 0 01-.674-.206 1.134 1.134 0 01-.259-.71.855.855 0 01.206-.674.829.829 0 01.63-.254l2.564-.135q1.183-.062 1.931 1.567.982 2.24 1.987 4.176a1.371 1.371 0 01.173.614.838.838 0 01-.21.594 1.149 1.149 0 01-.767.34 1.055 1.055 0 01-.753-.201q-.178-.313-.336-.666l.159 3.026q.058 1.099-1.085 1.158l-.541.029.273 5.21q.018.341.317.325l.42-.022q.478-.105.545-.73a11.523 11.523 0 00.027-1.789.6.6 0 01.256-.476 1.561 1.561 0 01.434-.143 2.487 2.487 0 01.625.027.754.754 0 01.46.74 10.559 10.559 0 01-.15 2.862 1.635 1.635 0 01-1.299 1.314l-2.1.11q-1.268-.034-1.351-1.617l-.3-5.71-1.163.061a14.878 14.878 0 01-.286 3.37 8.029 8.029 0 01-2.033 3.764 1.117 1.117 0 01-.72.439 1.113 1.113 0 01-.817-.319 1.074 1.074 0 01-.336-.665.944.944 0 01.262-.737 6.979 6.979 0 001.706-2.722 8.966 8.966 0 00.384-3.034l-.284.015q-1.142.06-1.2-1.039l-.126-2.408a.963.963 0 01-.683.337 1.152 1.152 0 01-.796-.22.713.713 0 01-.313-.607.877.877 0 01.159-.43 20.533 20.533 0 001.952-5.286.756.756 0 01.55-.612zm4.77 8.211q.38-.02.36-.42l-.095-1.785a.337.337 0 00-.4-.36l-3.147.165a.337.337 0 00-.36.4l.093 1.783q.021.4.402.38z" fill="#fff"/><path d="M180.862 1.953l26.832 2.831a2.081 2.081 0 011.365.526 1.865 1.865 0 01.232 1.41 2.201 2.201 0 01-.446 1.27 1.76 1.76 0 01-1.538.462l-11.514-1.215a35.186 35.186 0 01-2.864 4.48 2.73 2.73 0 01.45.013 2.001 2.001 0 011.419.67 1.981 1.981 0 01.423 1.569l-1.91 18.092a2.314 2.314 0 01-.517 1.296 1.895 1.895 0 01-1.76.577 1.901 1.901 0 01-1.496-.92 2.062 2.062 0 01-.305-1.384l1.855-17.58q-.594.7-1.15 1.37a50.146 50.146 0 01-10.163 8.594 3.207 3.207 0 01-2.04.617 1.838 1.838 0 01-1.118-.5 2.037 2.037 0 01-.815-1.819 2.362 2.362 0 01.508-1.194 59.874 59.874 0 009.884-7.307 40.428 40.428 0 005.315-7.027l-11.034-1.165a1.877 1.877 0 01-1.324-.59 2.001 2.001 0 01-.258-1.517 2.058 2.058 0 01.558-1.327 2.101 2.101 0 011.41-.232zm18.58 10.103a1.562 1.562 0 011.157.85 96.163 96.163 0 016.667 11.03 4.355 4.355 0 01.793 2.335 1.569 1.569 0 01-.727 1.31 2.301 2.301 0 01-1.5.43 1.845 1.845 0 01-1.696-1.323A82.697 82.697 0 00198 15.543a3.848 3.848 0 01-.757-2.021 1.478 1.478 0 01.781-1.165 2.401 2.401 0 011.417-.301zM137.36 27.86q-.068.645-.755.573-.421-.045-.777-.706a9.755 9.755 0 01-.964-5.65 9.623 9.623 0 012.135-5.308 3.729 3.729 0 01.397-.398.712.712 0 01.497-.118.7.7 0 01.472.234.64.64 0 01.154.456 1.027 1.027 0 01-.245.57 9.089 9.089 0 00-1.054 1.79 9.284 9.284 0 00-.876 2.926 9.357 9.357 0 00.236 3.144 7.704 7.704 0 00.653 1.906.941.941 0 01.127.58zm8.534-11.556l6.866.724a.8.8 0 01.504.195.686.686 0 01.098.55.65.65 0 01-.187.434.626.626 0 01-.558.169l-1.87-.198-.107 1.01 1.306.138a.986.986 0 01.987 1.225l-.308 2.918a.992.992 0 01-1.223 1.009l-2.442-.258.013.016a.866.866 0 01.118.622l-.043.407 2.512.265a.8.8 0 01.518.196.707.707 0 01.086.535.69.69 0 01-.176.449.663.663 0 01-.569.153l-2.51-.265-.124 1.175 3.03.32a.721.721 0 01.503.21.738.738 0 01.086.533.923.923 0 01-.166.494.667.667 0 01-.57.167l-7.648-.807a.61.61 0 01-.597-.8.741.741 0 01.223-.502.762.762 0 01.522-.1l3.03.319.125-1.18-2.357-.248a.823.823 0 01-.222-.051.266.266 0 01.005.086 1.044 1.044 0 01-.23.57.605.605 0 01-.596.264q-.28-.03-.638-.535a7.104 7.104 0 01-.752-1.342q-.116.29-.242.542a8.822 8.822 0 01-1.862 2.598.941.941 0 01-.58.123.55.55 0 01-.345-.238.626.626 0 01-.065-.73 2.128 2.128 0 01.385-.555 9.185 9.185 0 001.666-3.016 14.167 14.167 0 00.565-2.792l.52-4.937a.518.518 0 01.195-.363.773.773 0 01.537-.127.986.986 0 01.505.195.5.5 0 01.167.443l-.356 3.367a18.195 18.195 0 001.014-1.551.73.73 0 01.196-.249.56.56 0 01.397-.128 1.05 1.05 0 01.353.15.64.64 0 01.312.545.654.654 0 01-.102.29 1.912 1.912 0 01.469-.006l1.293.137.107-1.017-1.91-.202a.72.72 0 01-.488-.221.67.67 0 01-.096-.522.81.81 0 01.207-.516.815.815 0 01.52-.087zm-.904 3.735q-.182.25-.38.513a13.48 13.48 0 01-1.25 1.358q-.1.684-.198 1.195a8.398 8.398 0 001.203 2.315.78.78 0 01.221-.487.815.815 0 01.52-.087l2.358.249.043-.407a.812.812 0 01.244-.57q.03-.025.044-.024l-2.075-.219a1 1 0 01-1.004-1.24zm2.303.1l-.701-.073q-.225-.024-.247.187l-.117 1.107a.164.164 0 01.032-.038 3.277 3.277 0 001.031-1.182zm-1.111 1.657l-.064.603q-.022.211.203.235l4.77.503a.187.187 0 00.233-.188l.047-.45-1.236-.13q-1.067-.112-.984-.898l.118-1.123-.715-.075a.464.464 0 01-.026.11 3.226 3.226 0 01-1.124 1.642 1.2 1.2 0 01-.645.201.65.65 0 01-.434-.187.777.777 0 01-.145-.243zm2.61-2.803l.616.065.107-1.01-.617-.066zm2.697 2.37l.06-.562a.187.187 0 00-.19-.233l-.855-.09-.053.505q-.028.267.27.298zm-10.08-3.277a.952.952 0 01.464.163.511.511 0 01.135.468q-.01.1-.093.472-.511 1.99-.903 3.055a.473.473 0 01-.486.303.933.933 0 01-.584-.245.6.6 0 01-.137-.456 5.052 5.052 0 01.195-.633q.322-.902.78-2.684a.583.583 0 01.628-.443zm16.34 6.406a9.755 9.755 0 01-2.122 5.323q-.486.573-.907.528-.688-.072-.62-.718a.941.941 0 01.242-.542 7.704 7.704 0 001.046-1.72 9.357 9.357 0 00.887-3.025 9.284 9.284 0 00-.246-3.044 9.089 9.089 0 00-.657-1.97 1.027 1.027 0 01-.12-.61.621.621 0 01.257-.412.648.648 0 01.495-.131.712.712 0 01.46.218 2.047 2.047 0 01.305.472 9.623 9.623 0 01.98 5.63z" fill="#fff"/><path d="M43.49 39.079a.793.793 0 01.586.205.863.863 0 01.22.615.894.894 0 01-.22.527 13.74 13.74 0 01-1.655.425v2.153h1.42a.832.832 0 01.571.161.712.712 0 01.19.586.809.809 0 01-.146.527.774.774 0 01-.615.234h-1.42v.747a1.065 1.065 0 01.308-.044.733.733 0 01.337.132 3.751 3.751 0 01.5.791 5.2 5.2 0 01.615 1.845.646.646 0 01-.161.454.8.8 0 01-.586.19.7.7 0 01-.542-.308q-.205-.688-.469-1.333v4.627a.7.7 0 01-.19.556.714.714 0 01-.571.205.742.742 0 01-.571-.205.761.761 0 01-.176-.556v-4.847a8.516 8.516 0 01-1.406 2.914.808.808 0 01-.586.176.748.748 0 01-.425-.19.717.717 0 01-.161-.454 1.687 1.687 0 01.161-.674 22.42 22.42 0 002.035-4.027h-1.334a.85.85 0 01-.571-.176.748.748 0 01-.18-.581.875.875 0 01.176-.586.9.9 0 01.571-.161h1.718v-1.86a12.266 12.266 0 01-1.464.146q-.747-.029-.776-.7a.568.568 0 01.468-.639 30.483 30.483 0 003.881-.776 1.315 1.315 0 01.468-.099zm2.8.454a.886.886 0 01.527.249 6.3 6.3 0 011.391 1.42 2.114 2.114 0 01.483 1.157.545.545 0 01-.161.425.782.782 0 01-.6.22.546.546 0 01-.366-.1.551.551 0 01-.22-.264q-.513-.732-1.7-2.182a.477.477 0 01-.117-.278.719.719 0 01.059-.264.859.859 0 01.337-.308.875.875 0 01.364-.075zm-.644 3.573a.925.925 0 01.527.234 6.127 6.127 0 011.245 1.42 2.037 2.037 0 01.454 1.1.624.624 0 01-.176.483.821.821 0 01-.63.234.694.694 0 01-.439-.117.494.494 0 01-.205-.249q-.439-.718-1.435-2.182a.534.534 0 01-.1-.278.812.812 0 01.059-.264.744.744 0 01.337-.308.875.875 0 01.36-.073zm6.092 3.866a.562.562 0 01.5.234.846.846 0 01.146.527.8.8 0 01-.176.542.743.743 0 01-.527.234q-.513.088-.981.161v2.943a.759.759 0 01-.161.483.67.67 0 01-.615.278.708.708 0 01-.586-.278.719.719 0 01-.176-.483v-2.709a38.947 38.947 0 01-3.968.366.9.9 0 01-.6-.19.9.9 0 01-.234-.63.754.754 0 01.19-.556.971.971 0 01.761-.278q1.962-.161 3.851-.351v-7.732a.754.754 0 01.22-.556.732.732 0 01.542-.205.752.752 0 01.556.205.724.724 0 01.22.556v7.556zm3.415-5.318h1.479v-2.3q.015-.615.761-.644.718 0 .747.644v2.3h1.289a.773.773 0 01.527.146q.176.132.176.615a.893.893 0 01-.1.513.7.7 0 01-.6.234H58.14v2.943a6.446 6.446 0 00.879-.322 1.165 1.165 0 01.469-.161.763.763 0 01.586.205.863.863 0 01.234.615.814.814 0 01-.234.527 9.373 9.373 0 01-1.933.805v3.368a1.126 1.126 0 01-.278.849 1.6 1.6 0 01-.893.381h-1.23a1.036 1.036 0 01-.7-.322.685.685 0 01-.161-.439.891.891 0 01.146-.571.721.721 0 01.556-.264h.805q.249-.015.249-.176v-2.4a7.649 7.649 0 01-1.289.176q-.805-.029-.835-.761a.649.649 0 01.527-.7q.864-.176 1.6-.351v-3.4h-1.485a.745.745 0 01-.5-.161.708.708 0 01-.205-.586.772.772 0 01.205-.63.742.742 0 01.5-.133zm5.623-.952h2.4v-1.23a.777.777 0 01.234-.542.824.824 0 01.586-.161.858.858 0 01.586.161.667.667 0 01.249.542v1.23h2.517a.733.733 0 01.513.161q.19.132.19.6a.874.874 0 01-.117.527.691.691 0 01-.586.249h-2.515v1.743h1.508a1.635 1.635 0 01.981.249 1.055 1.055 0 01.308.864 5.675 5.675 0 01-1.01 3.119 7.308 7.308 0 01-1.245 1.464 10.841 10.841 0 001.845.966 2.962 2.962 0 01.659.322.639.639 0 01.278.586.753.753 0 01-.322.644.948.948 0 01-.542.117 4.276 4.276 0 01-1.582-.542 14.289 14.289 0 01-1.611-1.1 20.676 20.676 0 01-1.992 1.142 5.066 5.066 0 01-1.669.556.78.78 0 01-.659-.249.646.646 0 01-.176-.454.778.778 0 01.19-.527 20.051 20.051 0 003.163-1.523 14.7 14.7 0 01-1.333-1.655 3.7 3.7 0 01-.791-1.582.592.592 0 01.278-.483.877.877 0 01.556-.161.612.612 0 01.4.249q.278.469.5.805a10.026 10.026 0 001.681 1.955 1.912 1.912 0 00.205-.176 5.14 5.14 0 001.611-2.885q-.029-.161-.308-.161h-4.789a.686.686 0 01-.527-.176.8.8 0 01-.19-.586.814.814 0 01.205-.6.694.694 0 01.513-.176h2.21v-1.743h-2.4a.673.673 0 01-.5-.19.708.708 0 01-.205-.586.777.777 0 01.205-.615.69.69 0 01.498-.146zm10.7-1.289h11.463a.833.833 0 01.6.176.793.793 0 01.161.586.874.874 0 01-.132.527.769.769 0 01-.63.249h-7.717q-.1.586-.41 1.874h5.491a3.828 3.828 0 011.523.205.834.834 0 01.469.835q0 .644-1.259 6.209h2.213a.84.84 0 01.586.176.748.748 0 01.176.586.863.863 0 01-.146.556.715.715 0 01-.615.278H71.165a.824.824 0 01-.586-.205.883.883 0 01-.176-.63.875.875 0 01.176-.586.911.911 0 01.586-.176h8.1q.19-.791.337-1.45h-6.196q-1.289-.146-1.289-1.172 0-.293 1.479-6.5h-2.123a.8.8 0 01-.586-.19.777.777 0 01-.176-.586.875.875 0 01.176-.586.84.84 0 01.586-.173zm8.435 7.805q.63-2.782.63-2.885t-.176-.1h-5.861q-.278 1.2-.63 2.738 0 .249.22.249zm13.417 3.166a.671.671 0 01.513.161.334.334 0 01.132.161 13.7 13.7 0 001.23-3.588 21.849 21.849 0 00.41-4.422h-.747a.738.738 0 01-.542-.176.858.858 0 01-.161-.586.828.828 0 01.161-.527.77.77 0 01.542-.176h.747v-1.877a.724.724 0 01.19-.513 1.132 1.132 0 01.513-.132 1 1 0 01.6.161.688.688 0 01.161.483q0 1.025-.015 1.874h1.186q1.464 0 1.479 1.655 0 5.96-.205 7.439a2.567 2.567 0 01-.5 1.494 2.041 2.041 0 01-1.479.556 2.509 2.509 0 01-1.289-.308q-.41-.161-.41-.82a.913.913 0 01.249-.469.665.665 0 01.469-.176.336.336 0 01.1.029 2.2 2.2 0 00.879.205q.556-.088.6-.923.1-1.464.1-6.751a.465.465 0 00-.117-.381.351.351 0 00-.278-.088h-.798v.146a22.97 22.97 0 01-.264 3.72 17.061 17.061 0 01-1.757 5.506 1.2 1.2 0 01-.644.249.952.952 0 01-.6-.205.62.62 0 01-.205-.5v-.015a.24.24 0 01-.059.015l-6.516.586a.608.608 0 01-.483-.205.608.608 0 01-.161-.439.663.663 0 01.146-.439.529.529 0 01.439-.205l2.519-.22v-.952h-2.215a.619.619 0 01-.454-.146.606.606 0 01-.132-.439.724.724 0 01.132-.469.722.722 0 01.454-.117h2.211v-.644h-1.93a.88.88 0 01-.981-1.01V43.86a.867.867 0 01.981-.981h1.933v-.644h-2.636a.688.688 0 01-.483-.161.6.6 0 01-.161-.483.733.733 0 01.161-.513.789.789 0 01.483-.124h2.636v-.615q-1.157.073-2.46.088a.67.67 0 01-.644-.761q.044-.454.586-.527 3.324-.059 6.121-.351.22-.015.337-.015a.514.514 0 01.41.19.717.717 0 01.161.454.608.608 0 01-.454.586 24.165 24.165 0 01-2.519.234v.717h2.46a.778.778 0 01.5.132.654.654 0 01.146.513.615.615 0 01-.132.425.617.617 0 01-.513.22h-2.46v.644h2.094a.88.88 0 011.01.981v3.046a.893.893 0 01-1.01 1.01h-2.096v.644h2.27a.631.631 0 01.454.132q.132.1.132.454a.61.61 0 01-.1.381.553.553 0 01-.483.205h-2.27v.835zm-1.04-3.63q.278 0 .278-.308v-.513h-1.567v.82zm-2.826 0v-.82h-1.406v.513q0 .308.293.308zm-1.406-1.874h1.406v-.82h-1.114q-.293 0-.293.278zm2.943-.82v.82h1.567v-.542a.246.246 0 00-.278-.278zm11.956-2.46h6.663q-.044-1.04-.044-2.182a.924.924 0 01.19-.644.975.975 0 01.63-.161 1.152 1.152 0 01.615.132.806.806 0 01.278.674l.029 2.182h3.662a.893.893 0 01.586.161.772.772 0 01.176.6.9.9 0 01-.146.556.751.751 0 01-.615.249h-3.618a22.57 22.57 0 00.63 3.91 9.1 9.1 0 001.186 2.943q.4.483.688.483a.5.5 0 00.381-.293 3.033 3.033 0 00.4-.732.479.479 0 01.454-.322 1.143 1.143 0 01.513.132.8.8 0 01.41.732 2.465 2.465 0 01-.381 1.128 3.124 3.124 0 01-1.1 1.084 1.487 1.487 0 01-.674.146 2.434 2.434 0 01-1.538-.761 7.75 7.75 0 01-1.347-2.284 19.279 19.279 0 01-1.069-4.393q-.132-.835-.205-1.772h-6.754a.911.911 0 01-.586-.176.883.883 0 01-.176-.63.9.9 0 01.176-.6.969.969 0 01.586-.164zm.366 3.5h5.327a.893.893 0 01.586.161.8.8 0 01.176.6.809.809 0 01-.146.527.751.751 0 01-.615.249h-1.813v2.782q1.406-.1 2.738-.205a.576.576 0 01.5.22.809.809 0 01.146.527.974.974 0 01-.176.6.762.762 0 01-.513.22 63.981 63.981 0 01-6.634.527.934.934 0 01-.6-.176.9.9 0 01-.22-.63.754.754 0 01.19-.556 1.031 1.031 0 01.761-.264l2.109-.146v-2.9h-1.816a.8.8 0 01-.586-.19.777.777 0 01-.176-.586.935.935 0 01.176-.6.893.893 0 01.586-.163zm10.119-6.385a1.4 1.4 0 01.527.176 5.79 5.79 0 01.849.791 1.731 1.731 0 01.556.864.673.673 0 01-.19.5.983.983 0 01-.615.19.56.56 0 01-.483-.22 10.044 10.044 0 00-1.333-1.45.283.283 0 01-.117-.205.6.6 0 01.264-.513 1.261 1.261 0 01.542-.135zm5.776 1.464h1.332v-.82a.689.689 0 01.19-.454.77.77 0 01.513-.132.827.827 0 01.542.132.555.555 0 01.22.454v.82h1.172a.589.589 0 01.454.146.308.308 0 01.1.161 8.123 8.123 0 00.5-.952.882.882 0 01.542-.22 1.037 1.037 0 01.425.073.6.6 0 01.322.567 1.788 1.788 0 01-.161.527 15.025 15.025 0 01-1.172 1.933h.923a.806.806 0 01.513.132.7.7 0 01.132.513.733.733 0 01-.117.439.656.656 0 01-.527.205h-1.9l-.351.439q-.22.22-.4.425h1.772q.527.015.659.19a.616.616 0 01.22.454 1.838 1.838 0 01-.161.747 4.344 4.344 0 01-1.069 1.406 5.156 5.156 0 01-.732.63v.015l2.27-.088a.566.566 0 01.439.176.674.674 0 01.146.469.781.781 0 01-.161.5.65.65 0 01-.425.205q-1.04.073-2.021.117.029.337.029.63a3.194 3.194 0 01-.366 1.743 1.209 1.209 0 01-1.054.556 6.447 6.447 0 01-1.874-.249.772.772 0 01-.513-.761.574.574 0 01.161-.425.538.538 0 01.483-.22.675.675 0 01.234.059 2.771 2.771 0 001 .19q.454 0 .454-1.054a3.276 3.276 0 00-.029-.4q-1.64.073-3.192.088a.821.821 0 01-.513-.146.807.807 0 01-.19-.556.666.666 0 01.161-.469.891.891 0 01.659-.234l2.782-.088a2.315 2.315 0 00-.073-.278 2.649 2.649 0 01-.117-.615.53.53 0 01.22-.454 1.036 1.036 0 01.542-.132.676.676 0 01.6.278 3.373 3.373 0 00.41-.454 1.112 1.112 0 00.278-.41q0-.132-.059-.132h-2.069a.444.444 0 01-.132-.015 15.081 15.081 0 01-1.8 1.552 2.29 2.29 0 01-.7.161.781.781 0 01-.527-.176.845.845 0 01-.176-.469.507.507 0 01.308-.469 17.283 17.283 0 002.987-2.68.229.229 0 00.044-.059h-2.699a.688.688 0 01-.483-.161.6.6 0 01-.161-.483.733.733 0 01.161-.513.789.789 0 01.483-.132h1.874v-1.01h-1.332a.651.651 0 01-.454-.146.659.659 0 01-.146-.5.651.651 0 01.146-.454.7.7 0 01.454-.124zm3.236 2.24a11.881 11.881 0 00.7-1.01h-1.139v1.01zm5.008-3.646a1.286 1.286 0 01.6.117.537.537 0 01.293.527 6.342 6.342 0 01-.088.659q-.073.454-.19.937h2.856a.74.74 0 01.527.146.675.675 0 01.176.556.722.722 0 01-.117.454.667.667 0 01-.586.249h-.015a18.029 18.029 0 01-1.494 5.242q-.117.264-.249.5a9.646 9.646 0 001.375 1.916q.659.674.776.835a.6.6 0 01.366.513.885.885 0 01-.249.63.772.772 0 01-.571.264.811.811 0 01-.513-.22 7.731 7.731 0 01-2.006-2.563 9.915 9.915 0 01-2.035 2.24 2.385 2.385 0 01-1.01.542.882.882 0 01-.674-.264.773.773 0 01-.22-.5.545.545 0 01.366-.527 11.559 11.559 0 002.8-3.072q-.454-1.113-.864-2.284-.088.249-.176.439a.792.792 0 01-.586.22.744.744 0 01-.527-.19.558.558 0 01-.176-.454 1.412 1.412 0 01.117-.513 31.63 31.63 0 001.625-5.975.614.614 0 01.47-.426zm-.073 4.832q.073.278.19.7a19.037 19.037 0 00.805 2.2 12.716 12.716 0 001.084-4.086h-1.727q-.146.5-.308 1.025-.029.101-.044.16zm9.7 2.138h7.161q.718.044.761.835a1.048 1.048 0 01-.308.674 4.859 4.859 0 01-1.362 1.01h3.485a.567.567 0 01.439.146.514.514 0 01.146.439.663.663 0 01-.132.454.537.537 0 01-.454.19h-4.8a6.442 6.442 0 01.1.952 2.38 2.38 0 01-.351 1.45 1.367 1.367 0 01-1.1.483 8.551 8.551 0 01-2.46-.308.773.773 0 01-.542-.761.491.491 0 01.161-.381.489.489 0 01.425-.205 1.37 1.37 0 01.4.073 4.921 4.921 0 001.479.234q.483 0 .483-.776a3.093 3.093 0 00-.132-.761h-5.8a.629.629 0 01-.439-.146.659.659 0 01-.146-.5.709.709 0 01.146-.469.733.733 0 01.439-.117h5.374a1.233 1.233 0 01-.029-.22.557.557 0 01.234-.469 1.327 1.327 0 01.571-.117.654.654 0 01.644.351.8.8 0 01.044.1q1.435-.542 1.494-.82 0-.117-.19-.117h-5.74q-.5-.044-.586-.644a.526.526 0 01.586-.581zm1.172-6.97a.611.611 0 01.425.176.677.677 0 01.176.366q0 .322-.425.469a13.952 13.952 0 01-1.552.322q-.6.176-.6.439l.015.22h1.918a.488.488 0 01.351.1.47.47 0 01.117.366.544.544 0 01-.088.351.413.413 0 01-.381.19h-1.83l.059.644h1.772a.544.544 0 01.351.088.465.465 0 01.117.381.516.516 0 01-.088.337.413.413 0 01-.381.19h-1.7l.059.644h2.374l-.044-.029a.55.55 0 01-.1-.322.43.43 0 01.22-.366q.5-.234.923-.469-.4-.205-.747-.366a1.461 1.461 0 00-.176-.088.385.385 0 01-.117-.234.459.459 0 01.146-.381.534.534 0 01.4-.146 1.049 1.049 0 01.41.1 10.381 10.381 0 011.1.513 5.965 5.965 0 00.556-.4q.439-.293.513-.337a.419.419 0 01.22-.073.456.456 0 01.337.117.433.433 0 01.19.351.651.651 0 01-.117.366 7.526 7.526 0 01-.688.527 8.82 8.82 0 01.805.513.607.607 0 01.117.366.429.429 0 01-.1.293q-.029.059-.044.059h2.096q.029-.351.059-.644h-1.435a.4.4 0 01-.337-.132.547.547 0 01-.117-.4.508.508 0 01.132-.4.606.606 0 01.322-.073h1.523q.029-.366.059-.644h-1.582a.4.4 0 01-.337-.132.6.6 0 01-.117-.41.515.515 0 01.132-.381.526.526 0 01.322-.088h1.669q.029-.366.029-.527t-.1-.176h-1.538a.511.511 0 01-.571-.586q0-.527.571-.527h2.182q.864 0 .864.776 0 .425-.337 4.335h.059a.815.815 0 01.923.923v1.655a.551.551 0 01-.176.469.716.716 0 01-.527.176.735.735 0 01-.586-.205.694.694 0 01-.117-.439v-1.347q0-.132-.161-.132h-9.8q-.161 0-.161.132v1.347q0 .366-.146.469a.761.761 0 01-.556.176.694.694 0 01-.527-.161.57.57 0 01-.176-.483v-1.655a.815.815 0 01.923-.923h.073l-.293-3.881q0-.659.923-.908 1.069-.278 1.816-.439a3.071 3.071 0 01.527-.044zm3.925.117a.5.5 0 01.337.1.472.472 0 01.19.366.667.667 0 01-.1.366 6.273 6.273 0 01-.586.41l.527.351a.573.573 0 01.1.337.473.473 0 01-.1.322.375.375 0 01-.308.146.9.9 0 01-.469-.132q-.381-.234-.747-.439a8.728 8.728 0 01-1.1.542 1.556 1.556 0 01-.542.146.607.607 0 01-.425-.146.487.487 0 01-.1-.308.408.408 0 01.22-.366q.513-.22.923-.439-.4-.205-.7-.351-.088-.044-.161-.073a.4.4 0 01-.117-.249.422.422 0 01.161-.366.447.447 0 01.366-.161 1.236 1.236 0 01.381.1 10.381 10.381 0 011.1.513 3.669 3.669 0 00.454-.293q.425-.278.5-.322a.41.41 0 01.196-.056zm-2.4 5.169h2.255a.481.481 0 01-.073-.059q-.513-.308-.981-.556a11.553 11.553 0 01-1.084.556.33.33 0 01-.119.054zm11.5-4.056h10.6a.865.865 0 01.6.176.748.748 0 01.176.586.863.863 0 01-.146.556.731.731 0 01-.63.278h-4.452v8.318h5.228a.916.916 0 01.63.176.779.779 0 01.19.63.806.806 0 01-.161.556.788.788 0 01-.659.278h-12.079a.867.867 0 01-.615-.205.772.772 0 01-.205-.63.945.945 0 01.205-.644 1.024 1.024 0 01.615-.161h5.1v-8.318h-4.393a.772.772 0 01-.571-.205.837.837 0 01-.19-.63.83.83 0 01.19-.586.85.85 0 01.567-.177zm17.989 9.68h-2.738a.712.712 0 01-.527-.19.777.777 0 01-.176-.586.77.77 0 01.176-.542.791.791 0 01.527-.161h1.113v-7.893q0-1.23 1.069-1.23h7.717q1.113 0 1.113 1.23v7.893h1.01a.781.781 0 01.542.161.718.718 0 01.161.542.874.874 0 01-.132.527.674.674 0 01-.571.249h-3.236a15.685 15.685 0 003.192 1.347q.308.1.5.176a.54.54 0 01.249.527.735.735 0 01-.293.571.935.935 0 01-.659.176 3.433 3.433 0 01-.454-.029 11.218 11.218 0 01-2.9-1.215 3.773 3.773 0 01-.791-.571 1.313 1.313 0 01-.132-.469.68.68 0 01.161-.425.857.857 0 01.073-.088h-3.471a.685.685 0 01.132.4.624.624 0 01-.234.483 10.361 10.361 0 01-.908.586 16.091 16.091 0 01-2.328 1.128 2.1 2.1 0 01-.674.161.93.93 0 01-.688-.249.762.762 0 01-.205-.513.728.728 0 01.366-.644 21.955 21.955 0 002.987-1.333.042.042 0 01.029-.021zm-.029-1.479h6.736v-.981h-6.732zm0-2.27h6.736v-.893h-6.732zm0-2.182h6.736v-.864h-6.732zm0-2.153h6.736v-.893q0-.161-.249-.161h-6.326a.142.142 0 00-.161.161z" fill="#df4882"/></svg>