<svg xmlns="http://www.w3.org/2000/svg" width="547.908" height="134.671"><path d="M29.317 23.58l26.134-3.208q3.807-.468 4.29 3.469l1.68 13.679q.468 3.807-3.34 4.275l-10.13 1.244.641 5.227 15.04-1.847a3.708 3.708 0 012.466.352 3.059 3.059 0 011.002 2.3 2.816 2.816 0 01-2.716 3.478l-10.006 1.229a88.888 88.888 0 0014.074 13.27 2.955 2.955 0 011.374 2.124 2.372 2.372 0 01-1.036 2.223 4.741 4.741 0 01-2.55 1.098q-2.065.254-4.947-2.406a130.868 130.868 0 01-11.647-13.242l2.21 18.005a3.244 3.244 0 01-.473 2.547 3.3 3.3 0 01-2.405 1.212 3.172 3.172 0 01-2.627-.595 3.216 3.216 0 01-1.14-2.348L42.993 57.6a53.451 53.451 0 01-9.595 18.407 4.6 4.6 0 01-2.931 1.735 3.873 3.873 0 01-2.45-.747 2.5 2.5 0 01-.996-1.711 2.694 2.694 0 01.318-1.676q7.245-9.803 10.068-17.748l-9.231 1.134a3.513 3.513 0 01-2.41-.425 3.019 3.019 0 01-1.067-2.292 3.418 3.418 0 01.481-2.482 3.756 3.756 0 012.243-.93l14.522-1.783-.642-5.233-9.356 1.149q-3.807.467-4.275-3.34l-1.679-13.675q-.483-3.936 3.324-4.403zm23.845 12.858a1.207 1.207 0 001.189-1.52l-.848-6.906a1.207 1.207 0 00-1.518-1.19L34.24 29a1.207 1.207 0 00-1.188 1.521l.848 6.904a1.207 1.207 0 001.52 1.189zM18.354 21.782a5.864 5.864 0 012.911.232 2.532 2.532 0 011.664 2.35 27.966 27.966 0 01-.167 2.903 82.324 82.324 0 01-2.387 10.973l4.896 39.874a3.172 3.172 0 01-.594 2.627 3.091 3.091 0 01-2.349 1.14 3.123 3.123 0 01-2.49-.546 3.057 3.057 0 01-1.28-2.397l-3.176-25.874q-.406.966-.77 1.731a3.661 3.661 0 01-2.69 1.575 4.415 4.415 0 01-3.022-.611 2.922 2.922 0 01-1.324-2.26 4.613 4.613 0 01.634-2.305 104.541 104.541 0 008.147-27.005 2.98 2.98 0 011.997-2.407zm54.538 4.702h8.939a1.85 1.85 0 011.178.325q.447.325.447 1.463a1.909 1.909 0 01-.284 1.219 1.587 1.587 0 01-1.341.527h-8.939a1.744 1.744 0 01-1.219-.406 1.762 1.762 0 01-.406-1.341 2.126 2.126 0 01.406-1.5 2.017 2.017 0 011.219-.287zm-.691 5.973h10.24a2.146 2.146 0 011.544.447 2.2 2.2 0 01.406 1.544 2.01 2.01 0 01-.366 1.3 1.852 1.852 0 01-1.585.65H72.201a2.075 2.075 0 01-1.463-.488 1.826 1.826 0 01-.487-1.462 2.2 2.2 0 01.488-1.544 2.2 2.2 0 011.462-.447zm.85 6.054h8.939a2.06 2.06 0 011.341.325 1.606 1.606 0 01.569-.813 28.544 28.544 0 004.917-6.054 1.222 1.222 0 01.528-.325 1.58 1.58 0 01-.366-.975H86.87a2 2 0 01-1.382-.406 1.828 1.828 0 01-.406-1.382 2.1 2.1 0 01.406-1.382 2 2 0 011.382-.406h2.113v-.325a2.116 2.116 0 01.368-1.3 1.948 1.948 0 011.541-.487q1.178 0 1.422.366a1.763 1.763 0 01.528 1.422v.325h6.542v-.488a2.116 2.116 0 01.367-1.3 1.948 1.948 0 011.543-.488q1.178 0 1.422.366a1.691 1.691 0 01.528 1.422v.488h2.641a2 2 0 011.382.406 1.828 1.828 0 01.406 1.382 1.825 1.825 0 01-.322 1.218 1.9 1.9 0 01-1.463.569h-2.643a1.581 1.581 0 01-.406 1.138 2.111 2.111 0 01-1.544.488 2.048 2.048 0 01-1.5-.488 1.487 1.487 0 01-.406-1.138h-6.546a1.543 1.543 0 01-.406 1.016 1.574 1.574 0 01-.935.406 1.262 1.262 0 01.406.894 1.209 1.209 0 01-.163.609h3.982a6.424 6.424 0 01.204-.776 1.909 1.909 0 011.95-1.138 3.116 3.116 0 011.463.284 1.356 1.356 0 01.65 1.178 1.744 1.744 0 01-.081.447h6.138a1.3 1.3 0 011.463 1.5 1.9 1.9 0 01-.244 1.056 1.338 1.338 0 01-1.219.569h-6.382v1.3h5.892a1.5 1.5 0 011.056.284 1.393 1.393 0 01.366 1.138 1.51 1.51 0 01-.244.975 1.312 1.312 0 01-1.178.488h-5.892v1.3h5.892a1.367 1.367 0 011.056.325 1.454 1.454 0 01.366 1.178 1.431 1.431 0 01-.244.935 1.271 1.271 0 01-1.178.528h-5.892v1.26h6.382a1.293 1.293 0 011.463 1.463q0 1.625-1.463 1.625H89.267q-3.251 0-3.251-3.251v-5.313a1.741 1.741 0 01-.609.122 2.238 2.238 0 01-1.544-.65q-.081-.081-.081-.122a2.034 2.034 0 01-.325 1.219 1.821 1.821 0 01-1.463.569h-8.943a1.883 1.883 0 01-1.382-.447 1.846 1.846 0 01-.406-1.341 2.171 2.171 0 01.406-1.422 2.16 2.16 0 011.382-.366zm22.754 7.923v-1.26H90.12v.609q0 .65.488.65zm0-4.226v-1.3H90.12v1.3zm0-4.185v-1.3H90.12v1.3zm-22.754 5.974h8.939a1.914 1.914 0 011.382.406 1.828 1.828 0 01.406 1.382 2 2 0 01-.325 1.26 1.9 1.9 0 01-1.463.528h-8.939a2 2 0 01-1.382-.406 1.828 1.828 0 01-.406-1.382 2.1 2.1 0 01.406-1.382 2 2 0 011.382-.406zm.935 5.689h6.826q2.966 0 2.966 2.926v5.851q0 2.926-2.966 2.926h-6.823q-2.885 0-2.885-2.926v-5.852q0-2.926 2.885-2.926zm5.2 8.127q.691 0 .691-.609v-3.252a.611.611 0 00-.691-.691h-3.572q-.609 0-.609.691v3.251a.539.539 0 00.609.609zm6.989-7.111h18.248a3.012 3.012 0 011.422.284 1.437 1.437 0 01.65 1.178 3.233 3.233 0 01-.935 2.235 20.209 20.209 0 01-5.12 3.779 22.37 22.37 0 005.445.65q1.95 0 1.95 1.788a2.061 2.061 0 01-2.275 1.95 22.989 22.989 0 01-5.973-.894 32.988 32.988 0 01-3.738-1.3 28.071 28.071 0 01-9.833 2.194 1.271 1.271 0 01-1.178-.528 2.023 2.023 0 01-.447-1.1 1.44 1.44 0 011.3-1.625 35.374 35.374 0 006.217-1.178 13.2 13.2 0 01-3.413-3.251 3.736 3.736 0 01-.65-1.26h-1.666q-1.056-.081-1.1-1.463.043-1.419 1.1-1.46zm5.892 2.926a8.092 8.092 0 002.6 2.235q.772.447 1.544.813a16.851 16.851 0 004.64-2.558q0-.488-.163-.488z" fill="#00a8c1" stroke="#df4882" stroke-width="7"/><path d="M115.138 34.993l14.157-.496-.006-.174a2.672 2.672 0 01.538-1.97 2.634 2.634 0 012.014-.677 2.844 2.844 0 012.098.49 2.624 2.624 0 01.719 1.969l.006.172 14.376-.503a1.9 1.9 0 011.4.384 1.75 1.75 0 01.393 1.286 1.776 1.776 0 01-.26 1.18 1.692 1.692 0 01-1.408.612l-14.38.504.073 2.078 12.297-.43a1.818 1.818 0 011.27.345 1.527 1.527 0 01.387 1.156 1.972 1.972 0 01-.257 1.224 1.675 1.675 0 01-1.28.565l-12.302.43.073 2.079 15.804-.554a1.831 1.831 0 011.358.385 1.618 1.618 0 01.435 1.285 1.79 1.79 0 01-.304 1.225 1.786 1.786 0 01-1.367.568l-36.587 1.282a1.993 1.993 0 01-1.312-.344 1.66 1.66 0 01-.48-1.324 1.925 1.925 0 01.385-1.358 1.993 1.993 0 011.285-.435l15.415-.54-.073-2.078-12.427.435a1.654 1.654 0 01-1.226-.347 1.925 1.925 0 01-.394-1.33 1.715 1.715 0 01.306-1.182 1.654 1.654 0 011.199-.432l12.427-.435-.073-2.076-14.158.496a1.963 1.963 0 01-1.356-.342 1.774 1.774 0 01-.437-1.33 2.067 2.067 0 01.343-1.356 1.963 1.963 0 011.329-.437zm5.374 16.111l24.465-.857q3.463-.121 3.578 3.17l.506 14.417q.074 2.122-.902 2.806a5.614 5.614 0 01-3.348.984 23.39 23.39 0 01-7.479-.648 2.17 2.17 0 01-1.267-1.516q-.08-2.251 1.647-2.485a6.697 6.697 0 011.217.087 20.953 20.953 0 004.74.442.668.668 0 00.494-.755l-.083-2.382-21.514.754.182 5.195a2.151 2.151 0 01-.588 1.798 2.538 2.538 0 01-1.715.537 2.363 2.363 0 01-1.884-.541 2.423 2.423 0 01-.62-1.626l-.56-15.976q-.115-3.29 3.131-3.404zm1.94 10.856l21.52-.753-.078-2.208-21.516.754zm-.187-5.368l21.518-.754-.06-1.732a.46.46 0 00-.538-.502l-20.088.704q-.91.032-.89.551z" fill="#00a8c1" stroke="#df4882" stroke-width="6.997"/><path d="M173.148 25.177q2.16.039 2.2 1.728v19.993a3.328 3.328 0 01-1.021 2.632 6.809 6.809 0 01-3.849.943 11.036 11.036 0 01-3.771-.432 2.494 2.494 0 01-1.571-2.4 1.838 1.838 0 011.571-2.042 6.816 6.816 0 01.943.079 16.279 16.279 0 002.671.236.674.674 0 00.668-.746V26.905q.077-1.689 2.159-1.728zm-9.9 3.614a2.858 2.858 0 011.65.432 1.813 1.813 0 01.746 1.61 16.736 16.736 0 01-1.058 3.731 65.048 65.048 0 01-5.539 10.723 2.058 2.058 0 01-2.082 1.3 3.308 3.308 0 01-1.688-.75 2.2 2.2 0 01-.511-1.492 4.588 4.588 0 01.511-1.493 59.419 59.419 0 006.245-12.765 1.694 1.694 0 011.728-1.296zm19.835 0a1.942 1.942 0 011.414.825 118.58 118.58 0 016.481 11.823 6.873 6.873 0 01.864 2.592 1.788 1.788 0 01-.668 1.571 2.623 2.623 0 01-1.65.668 1.728 1.728 0 01-1.728-1.257 105.5 105.5 0 00-6.245-12.1 5.122 5.122 0 01-.822-2.236 1.828 1.828 0 01.746-1.414 2.836 2.836 0 011.611-.472zm1.689 15.24a2.516 2.516 0 011.571.628 2.068 2.068 0 01.786 1.768 3.6 3.6 0 01-.786 1.689 40.7 40.7 0 01-9.662 7.384 65.933 65.933 0 01-13.472 5.42 18.046 18.046 0 01-4.829 1.057 2.075 2.075 0 01-1.65-.589 3.3 3.3 0 01-.511-1.768 2.5 2.5 0 011.257-2.078 66.167 66.167 0 0015.358-5.185 42.079 42.079 0 0010.527-7.5 1.71 1.71 0 011.413-.827zm16.882-7.362a3.4 3.4 0 011.735.275 1.553 1.553 0 01.88 1.492 5.153 5.153 0 01-.194 1.11q-.19.56-.379 1.156l21.144-1.109a1.848 1.848 0 011.334.297 1.686 1.686 0 01.51 1.365 2.125 2.125 0 01-.227 1.257 1.665 1.665 0 01-1.428.698l-10.114.53.239 4.564 9.202-.482a1.536 1.536 0 011.843 1.625q.1 1.897-1.653 1.99l-9.203.481.3 5.733 11.577-.606a2.086 2.086 0 011.37.295 1.721 1.721 0 01.47 1.33 2.183 2.183 0 01-.26 1.33 1.729 1.729 0 01-1.393.659l-11.574.607.347 6.61a1.669 1.669 0 01-.439 1.414 2.011 2.011 0 01-1.507.592 1.854 1.854 0 01-1.456-.436 1.9 1.9 0 01-.51-1.365l-.347-6.61-14.786.774a1.867 1.867 0 01-1.337-.37 1.868 1.868 0 01-.515-1.441 1.923 1.923 0 01.367-1.374 2.113 2.113 0 011.295-.435l2.776-.145-.315-6.02q-.174-3.324 3.185-3.5l8.655-.454-.239-4.565-8.91.467-.462.973a37.355 37.355 0 01-2.76 4.65 2.116 2.116 0 01-1.71.932 2.631 2.631 0 01-1.783-.492 1.746 1.746 0 01-.694-1.39 1.651 1.651 0 01.392-.9 34.814 34.814 0 005.323-10.239 1.685 1.685 0 011.25-1.274zm10.081 21.187l-.3-5.734-7.34.385q-.694.036-.654.803l.26 4.966zm56.409-37.806a3.848 3.848 0 011.715.366 1.626 1.626 0 01.776 1.357q-.14.798-1.164 4.138l15.49.27q3.399.06 3.322 4.468l-.437 25.019a2.679 2.679 0 01-1.347 2.664 8.528 8.528 0 01-4.255.766q-5.037-.088-7.533-1.476a2.324 2.324 0 01-1.147-1.7q.042-2.392 1.892-2.528a5.117 5.117 0 011.423.277 20.907 20.907 0 005.735 1.024.706.706 0 00.686-.788l.394-22.541q.014-.8-.486-.809l-24.857-.434a.705.705 0 00-.813.786l-.461 26.406a1.8 1.8 0 01-.7 1.588 2.831 2.831 0 01-1.728.39 2.057 2.057 0 01-1.627-.574 2.077 2.077 0 01-.519-1.485l.475-27.203q.077-4.408 3.142-4.354l8.311.145q.58-1.963 1.297-4.471a2.423 2.423 0 012.416-1.301zm-2.983 14.519l10.285.18q3.19.055 3.134 3.287l-.175 10.034q-.055 3.19-3.246 3.135l-10.285-.18q-3.19-.055-3.135-3.246l.175-10.035q.056-3.23 3.247-3.175zm7.508 12.564a1.188 1.188 0 001.367-1.32l.1-5.71a1.188 1.188 0 00-1.32-1.369l-5.207-.09a1.169 1.169 0 00-1.323 1.32l-.1 5.71a1.169 1.169 0 001.277 1.368zm21.682-29.876l9.447-.496-.053-1.024a3.611 3.611 0 01.542-2.322 3.421 3.421 0 012.607-.921q1.987-.105 2.5.47a2.9 2.9 0 011.091 2.417l.054 1.027 16.552-.867-.053-1.025a3.4 3.4 0 01.602-2.325 3.421 3.421 0 012.607-.921q1.987-.104 2.5.47a2.9 2.9 0 011.096 2.42l.054 1.024 10.107-.53a3.438 3.438 0 012.259.483 3.056 3.056 0 01.782 2.252 2.982 2.982 0 01-.44 1.955 2.85 2.85 0 01-2.298 1.085l-10.107.53.1 1.926a2.78 2.78 0 01-.666 2.268l-.283.316a6.812 6.812 0 013.091 1.407q5.388 4.908 11.653 10.434a2.983 2.983 0 01.775 2.133 3.287 3.287 0 01-.846 2.277 2.891 2.891 0 01-2.059 1.01 3.946 3.946 0 01-2.959-1.046 51.883 51.883 0 01-8.015-7.849q-1.422-1.796-2.144-1.758-.783.041-1.68 1.356a93.79 93.79 0 01-7.123 9.185 4.825 4.825 0 01-3.156 1.976 3.628 3.628 0 01-2.651-1.068 3.668 3.668 0 01-.826-1.948 2.526 2.526 0 01.564-1.9q5.416-6.078 10.33-12.492a5.521 5.521 0 011.514-1.045 2.744 2.744 0 01-1.425-.71 2.672 2.672 0 01-.9-2.186l-.1-1.927-16.552.867.1 1.927a2.78 2.78 0 01-.665 2.268 2.452 2.452 0 01-1.524.864 2.746 2.746 0 01.5 1.483l.18 3.43 7.464-.39a3.438 3.438 0 012.258.482 2.934 2.934 0 01.782 2.252 2.731 2.731 0 01-.444 1.894 2.773 2.773 0 01-2.294 1.147l-12.76.668.102 1.927q.098 1.865.126 3.554l8.908-.467a6.216 6.216 0 013.905.822q1.25.835 1.418 4.031.379 7.223.403 11.144-.122 5.74-2.077 7.593a5.767 5.767 0 01-3.947 1.836q-5.36.221-7.543-1.113a3.217 3.217 0 01-1.415-2.823 3.493 3.493 0 01.807-1.793 2.5 2.5 0 011.71-.753 4.543 4.543 0 011.278.174 10.52 10.52 0 003.592.597q1.565-.082 1.67-2.683.013-3.2-.38-10.723-.039-.722-.52-.697l-7.936.416a21.684 21.684 0 01-.24 2.431 33.391 33.391 0 01-6.256 16.498 4.133 4.133 0 01-2.114 1.137 2.456 2.456 0 01-1.837-.504 2.68 2.68 0 01-.937-1.765 4.818 4.818 0 01.421-2.315q4.552-8.688 4.856-14.438a91.446 91.446 0 00.027-9.839l-.1-1.926-3.61.19a2.947 2.947 0 01-2.21-.61 2.858 2.858 0 01-.775-2.131 3.461 3.461 0 01.542-2.322 3.328 3.328 0 012.136-.713l8.188-.429-.18-3.433a3.2 3.2 0 01.846-2.278 2.334 2.334 0 011.353-.671 3.5 3.5 0 01-.45-1.667l-.1-1.928-9.446.495a2.932 2.932 0 01-2.211-.67 2.514 2.514 0 01-.836-2.069 3.263 3.263 0 01.606-2.326 3.482 3.482 0 012.138-.712zm34.546 23.478a5.226 5.226 0 012.5.47 92.52 92.52 0 0111.7 6.75 3.8 3.8 0 011.063 1.875 3.123 3.123 0 01-.564 1.9 3.8 3.8 0 01-1.92 1.369 5.013 5.013 0 01-2.249-.305 9.727 9.727 0 01-2.052-1.16 107.118 107.118 0 00-9.236-5.793 4.2 4.2 0 01-.881-.677 2.55 2.55 0 01-.873-1.648 2.919 2.919 0 012.51-2.787zm-3.994 11.37a9.489 9.489 0 014.033.936q10.855 5.594 14.339 8.726a2.68 2.68 0 011.378 2.1 2.729 2.729 0 01-.505 1.838 3.029 3.029 0 01-1.99 1.19 4.871 4.871 0 01-3.249-.976 148.748 148.748 0 00-14.953-8.93 3.013 3.013 0 01-1.558-2.09 2.43 2.43 0 01.676-2.088 2.547 2.547 0 011.83-.706zM409.6 22.61l11.009-.578a2.244 2.244 0 011.621.367q.62.368.691 1.72a2.937 2.937 0 01-.261 1.716 2.221 2.221 0 01-1.815.796l-11.004.577a2.209 2.209 0 01-1.58-.469 2.137 2.137 0 01-.753-1.812 2.153 2.153 0 01.556-1.832 2.345 2.345 0 011.536-.486zm-1.44 6.9l14.808-.777a2.647 2.647 0 011.926.45 2.622 2.622 0 01.596 1.826 2.991 2.991 0 01-.356 1.821 2.225 2.225 0 01-1.906.953l-14.81.777a2.438 2.438 0 01-1.83-.556 2.661 2.661 0 01-.705-1.966 2.635 2.635 0 01.498-1.883 2.708 2.708 0 011.773-.645zm2.188 7.362l10.809-.567a2.635 2.635 0 011.775.359 2.4 2.4 0 01.542 1.728 2.509 2.509 0 01-.32 1.519 2.157 2.157 0 01-1.762.793l-10.814.567a2.355 2.355 0 01-1.68-.464 2.049 2.049 0 01-.642-1.618 2.51 2.51 0 01.458-1.78 2.7 2.7 0 011.634-.537zm.364 6.956l10.81-.566a2.445 2.445 0 011.777.407 2.423 2.423 0 01.54 1.674 2.471 2.471 0 01-.319 1.573 2.242 2.242 0 01-1.763.744l-10.814.567a2.506 2.506 0 01-1.678-.413 2.124 2.124 0 01-.644-1.668 2.431 2.431 0 01.46-1.727 2.506 2.506 0 011.631-.59zm.378 7.206l10.408-.545q3.253-.17 3.423 3.082l.441 8.407q.165 3.153-3.087 3.324l-10.409.545q-3.153.165-3.318-2.987l-.44-8.407q-.172-3.252 2.982-3.418zm8.592 9.788a.664.664 0 00.711-.79l-.21-4.004q-.041-.799-.792-.76l-5.656.297q-.75.04-.709.838l.21 4.004a.664.664 0 00.79.711zm10.586-39.296a4.022 4.022 0 011.918.3 1.915 1.915 0 01.945 1.753 10.151 10.151 0 01-.124 1.462 40.794 40.794 0 01-1.86 6.521l13.61-.713a3.32 3.32 0 01.702.013q-1.13-2.45-2.34-5.397a1.4 1.4 0 00-1.501-.875l-4.954.26a2.463 2.463 0 01-1.683-.513 2.833 2.833 0 01-.644-1.768 2.134 2.134 0 01.512-1.683 2.071 2.071 0 011.574-.636l6.407-.335q2.953-.155 4.82 3.912 2.452 5.592 4.963 10.428a3.425 3.425 0 01.432 1.534 2.092 2.092 0 01-.523 1.482 2.869 2.869 0 01-1.912.853 2.635 2.635 0 01-1.883-.502q-.44-.778-.84-1.658l.396 7.556q.145 2.753-2.707 2.902l-1.354.071.682 13.007q.045.851.796.812l1.05-.055q1.188-.263 1.36-1.828a28.776 28.776 0 00.066-4.47 1.492 1.492 0 01.638-1.188 3.9 3.9 0 011.083-.357 6.211 6.211 0 011.56.069 1.884 1.884 0 011.15 1.842 26.367 26.367 0 01-.373 7.154 4.082 4.082 0 01-3.24 3.274l-5.255.276q-3.166-.086-3.373-4.04l-.747-14.26-2.903.153a37.153 37.153 0 01-.714 8.417 20.051 20.051 0 01-5.08 9.4 2.79 2.79 0 01-1.799 1.096 2.779 2.779 0 01-2.044-.794 2.683 2.683 0 01-.84-1.659 2.357 2.357 0 01.656-1.837 17.428 17.428 0 004.26-6.797 22.391 22.391 0 00.958-7.577l-.699.036q-2.852.15-2.996-2.602l-.315-6.014a2.4 2.4 0 01-1.713.843 2.877 2.877 0 01-1.985-.548 1.78 1.78 0 01-.78-1.515 2.19 2.19 0 01.395-1.075 51.276 51.276 0 004.873-13.203 1.888 1.888 0 011.375-1.527zm11.914 20.505q.95-.05.899-1.049l-.234-4.454a.842.842 0 00-1-.9l-7.858.411a.842.842 0 00-.9 1l.233 4.455q.052.998 1.003.949z" fill="#00a8c1" stroke="#df4882" stroke-width="7"/><path d="M467.469 4.606l67.006 7.07a5.197 5.197 0 013.41 1.312q.85.955.58 3.522a5.49 5.49 0 01-1.114 3.17 4.395 4.395 0 01-3.844 1.152l-28.756-3.034a87.87 87.87 0 01-7.15 11.186 6.815 6.815 0 011.121.032 5.003 5.003 0 013.546 1.672 4.948 4.948 0 011.058 3.919l-4.769 45.185a5.78 5.78 0 01-1.293 3.238 4.732 4.732 0 01-4.392 1.44 4.738 4.738 0 01-3.732-2.298 5.15 5.15 0 01-.76-3.454l4.632-43.9q-1.482 1.746-2.87 3.419-12.876 13.784-25.368 21.469a8.004 8.004 0 01-5.092 1.54 4.59 4.59 0 01-2.81-1.25 5.088 5.088 0 01-2.036-4.547 5.903 5.903 0 011.266-2.985q15.92-9.825 24.682-18.245a100.96 100.96 0 0013.274-17.552l-27.555-2.907a4.688 4.688 0 01-3.306-1.474q-.927-1.05-.638-3.79a5.139 5.139 0 011.388-3.31 5.246 5.246 0 013.522-.58zm46.4 25.23a3.902 3.902 0 012.895 2.122 240.144 240.144 0 0116.648 27.543 10.878 10.878 0 011.98 5.833 3.918 3.918 0 01-1.815 3.27 5.747 5.747 0 01-3.748 1.075 4.602 4.602 0 01-4.24-3.304 206.514 206.514 0 00-15.32-27.835q-2.063-3.42-1.891-5.045a3.69 3.69 0 011.951-2.913 6.003 6.003 0 013.54-.746zM354.231 69.3q-.17 1.613-1.887 1.431-1.05-.11-1.94-1.763a24.36 24.36 0 01-2.408-14.109 24.03 24.03 0 015.332-13.253 9.313 9.313 0 01.99-.995 1.778 1.778 0 011.239-.294 1.743 1.743 0 011.178.585 1.6 1.6 0 01.373 1.136 2.563 2.563 0 01-.61 1.423 22.697 22.697 0 00-2.634 4.472 23.184 23.184 0 00-2.186 7.315 23.367 23.367 0 00.589 7.856 19.245 19.245 0 001.657 4.746 2.351 2.351 0 01.307 1.45zm21.311-28.858l17.134 1.808a2.01 2.01 0 011.257.486 1.715 1.715 0 01.244 1.372 1.622 1.622 0 01-.466 1.088 1.565 1.565 0 01-1.39.42l-4.664-.492-.266 2.524 3.259.344a2.46 2.46 0 012.476 3.06l-.769 7.281a2.476 2.476 0 01-3.064 2.511l-6.093-.643.031.039a2.164 2.164 0 01.297 1.554l-.107 1.016 6.268.662a1.989 1.989 0 011.294.49 1.766 1.766 0 01.214 1.33 1.72 1.72 0 01-.437 1.124 1.657 1.657 0 01-1.422.381l-6.268-.662-.31 2.944 7.567.798a1.8 1.8 0 011.253.522 1.843 1.843 0 01.214 1.33 2.306 2.306 0 01-.414 1.232 1.666 1.666 0 01-1.425.416l-19.092-2.014a1.525 1.525 0 01-1.49-2 1.853 1.853 0 01.558-1.249 1.901 1.901 0 011.302-.252l7.568.799.31-2.936-5.888-.622a2.055 2.055 0 01-.552-.128.665.665 0 01.012.213 2.601 2.601 0 01-.576 1.428 1.512 1.512 0 01-1.487.658q-.696-.074-1.595-1.338a17.73 17.73 0 01-1.88-3.351q-.287.714-.603 1.354a22.029 22.029 0 01-4.652 6.488 2.351 2.351 0 01-1.45.308 1.375 1.375 0 01-.86-.587 1.565 1.565 0 01-.161-1.828 5.316 5.316 0 01.96-1.387 22.936 22.936 0 004.161-7.532 35.379 35.379 0 001.409-6.972l1.301-12.33a1.294 1.294 0 01.485-.906 1.931 1.931 0 011.348-.318 2.46 2.46 0 011.256.486 1.24 1.24 0 01.415 1.107l-.888 8.41A45.435 45.435 0 00372.401 45a1.821 1.821 0 01.491-.622 1.4 1.4 0 01.991-.32 2.623 2.623 0 01.882.376 1.6 1.6 0 01.78 1.36 1.634 1.634 0 01-.253.718 4.776 4.776 0 011.17-.017l3.225.34.266-2.526-4.766-.503a1.8 1.8 0 01-1.216-.554 1.67 1.67 0 01-.252-1.302 2.023 2.023 0 01.526-1.29 2.035 2.035 0 011.297-.218zm-2.259 9.327q-.455.625-.95 1.281a33.664 33.664 0 01-3.122 3.393q-.25 1.71-.493 2.995a20.973 20.973 0 003.005 5.773 1.947 1.947 0 01.554-1.218 2.035 2.035 0 011.299-.217l5.886.621.107-1.016a2.03 2.03 0 01.611-1.424q.077-.062.113-.058l-5.187-.548a2.491 2.491 0 01-2.507-3.103zm5.749.253l-1.753-.185q-.56-.06-.615.466l-.292 2.768a.41.41 0 01.08-.098 8.183 8.183 0 002.579-2.952zm-2.775 4.133l-.159 1.507q-.055.525.505.584l11.913 1.258a.467.467 0 00.58-.47l.119-1.12-3.085-.325q-2.662-.281-2.455-2.243l.296-2.803-1.791-.19a1.159 1.159 0 01-.065.278 8.056 8.056 0 01-2.805 4.097 2.989 2.989 0 01-1.612.503 1.622 1.622 0 01-1.08-.47 1.941 1.941 0 01-.362-.604zm6.512-6.995l1.537.163.267-2.527-1.537-.162zm6.745 5.92l.148-1.405a.467.467 0 00-.47-.581l-2.14-.226-.133 1.257q-.07.666.666.744zm-25.173-8.186a2.38 2.38 0 011.164.406 1.276 1.276 0 01.337 1.17q-.026.245-.231 1.183-1.269 4.967-2.258 7.627a1.183 1.183 0 01-1.214.757 2.331 2.331 0 01-1.458-.615 1.49 1.49 0 01-.34-1.134 12.615 12.615 0 01.485-1.579q.804-2.253 1.947-6.703a1.457 1.457 0 011.568-1.112zm40.807 15.997a24.36 24.36 0 01-5.3 13.293q-1.213 1.43-2.265 1.32-1.718-.182-1.547-1.794a2.351 2.351 0 01.603-1.354 19.245 19.245 0 002.615-4.294 23.367 23.367 0 002.216-7.56 23.184 23.184 0 00-.615-7.61 22.697 22.697 0 00-1.641-4.921 2.563 2.563 0 01-.3-1.522 1.55 1.55 0 01.64-1.03 1.62 1.62 0 011.241-.33 1.778 1.778 0 011.15.546 5.113 5.113 0 01.761 1.18 24.03 24.03 0 012.442 14.076z" fill="#00a8c1" stroke="#df4882" stroke-width="7.004"/><path d="M29.317 23.58l26.134-3.208q3.807-.468 4.29 3.469l1.68 13.679q.468 3.807-3.34 4.275l-10.13 1.244.641 5.227 15.04-1.847a3.708 3.708 0 012.466.352 3.059 3.059 0 011.002 2.3 2.816 2.816 0 01-2.716 3.478l-10.006 1.229a88.888 88.888 0 0014.074 13.27 2.955 2.955 0 011.374 2.124 2.372 2.372 0 01-1.036 2.223 4.741 4.741 0 01-2.55 1.098q-2.065.254-4.947-2.406a130.868 130.868 0 01-11.647-13.242l2.21 18.005a3.244 3.244 0 01-.473 2.547 3.3 3.3 0 01-2.405 1.212 3.172 3.172 0 01-2.627-.595 3.216 3.216 0 01-1.14-2.348L42.993 57.6a53.451 53.451 0 01-9.595 18.407 4.6 4.6 0 01-2.931 1.735 3.873 3.873 0 01-2.45-.747 2.5 2.5 0 01-.996-1.711 2.694 2.694 0 01.318-1.676q7.245-9.803 10.068-17.748l-9.231 1.134a3.513 3.513 0 01-2.41-.425 3.019 3.019 0 01-1.067-2.292 3.418 3.418 0 01.481-2.482 3.756 3.756 0 012.243-.93l14.522-1.783-.642-5.233-9.356 1.149q-3.807.467-4.275-3.34l-1.679-13.675q-.483-3.936 3.324-4.403zm23.845 12.858a1.207 1.207 0 001.189-1.52l-.848-6.906a1.207 1.207 0 00-1.518-1.19L34.24 29a1.207 1.207 0 00-1.188 1.521l.848 6.904a1.207 1.207 0 001.52 1.189zM18.354 21.782a5.864 5.864 0 012.911.232 2.532 2.532 0 011.664 2.35 27.966 27.966 0 01-.167 2.903 82.324 82.324 0 01-2.387 10.973l4.896 39.874a3.172 3.172 0 01-.594 2.627 3.091 3.091 0 01-2.349 1.14 3.123 3.123 0 01-2.49-.546 3.057 3.057 0 01-1.28-2.397l-3.176-25.874q-.406.966-.77 1.731a3.661 3.661 0 01-2.69 1.575 4.415 4.415 0 01-3.022-.611 2.922 2.922 0 01-1.324-2.26 4.613 4.613 0 01.634-2.305 104.541 104.541 0 008.147-27.005 2.98 2.98 0 011.997-2.407zm54.538 4.702h8.939a1.85 1.85 0 011.178.325q.447.325.447 1.463a1.909 1.909 0 01-.284 1.219 1.587 1.587 0 01-1.341.527h-8.939a1.744 1.744 0 01-1.219-.406 1.762 1.762 0 01-.406-1.341 2.126 2.126 0 01.406-1.5 2.017 2.017 0 011.219-.287zm-.691 5.973h10.24a2.146 2.146 0 011.544.447 2.2 2.2 0 01.406 1.544 2.01 2.01 0 01-.366 1.3 1.852 1.852 0 01-1.585.65H72.201a2.075 2.075 0 01-1.463-.488 1.826 1.826 0 01-.487-1.462 2.2 2.2 0 01.488-1.544 2.2 2.2 0 011.462-.447zm.85 6.054h8.939a2.06 2.06 0 011.341.325 1.606 1.606 0 01.569-.813 28.544 28.544 0 004.917-6.054 1.222 1.222 0 01.528-.325 1.58 1.58 0 01-.366-.975H86.87a2 2 0 01-1.382-.406 1.828 1.828 0 01-.406-1.382 2.1 2.1 0 01.406-1.382 2 2 0 011.382-.406h2.113v-.325a2.116 2.116 0 01.368-1.3 1.948 1.948 0 011.541-.487q1.178 0 1.422.366a1.763 1.763 0 01.528 1.422v.325h6.542v-.488a2.116 2.116 0 01.367-1.3 1.948 1.948 0 011.543-.488q1.178 0 1.422.366a1.691 1.691 0 01.528 1.422v.488h2.641a2 2 0 011.382.406 1.828 1.828 0 01.406 1.382 1.825 1.825 0 01-.322 1.218 1.9 1.9 0 01-1.463.569h-2.643a1.581 1.581 0 01-.406 1.138 2.111 2.111 0 01-1.544.488 2.048 2.048 0 01-1.5-.488 1.487 1.487 0 01-.406-1.138h-6.546a1.543 1.543 0 01-.406 1.016 1.574 1.574 0 01-.935.406 1.262 1.262 0 01.406.894 1.209 1.209 0 01-.163.609h3.982a6.424 6.424 0 01.204-.776 1.909 1.909 0 011.95-1.138 3.116 3.116 0 011.463.284 1.356 1.356 0 01.65 1.178 1.744 1.744 0 01-.081.447h6.138a1.3 1.3 0 011.463 1.5 1.9 1.9 0 01-.244 1.056 1.338 1.338 0 01-1.219.569h-6.382v1.3h5.892a1.5 1.5 0 011.056.284 1.393 1.393 0 01.366 1.138 1.51 1.51 0 01-.244.975 1.312 1.312 0 01-1.178.488h-5.892v1.3h5.892a1.367 1.367 0 011.056.325 1.454 1.454 0 01.366 1.178 1.431 1.431 0 01-.244.935 1.271 1.271 0 01-1.178.528h-5.892v1.26h6.382a1.293 1.293 0 011.463 1.463q0 1.625-1.463 1.625H89.267q-3.251 0-3.251-3.251v-5.313a1.741 1.741 0 01-.609.122 2.238 2.238 0 01-1.544-.65q-.081-.081-.081-.122a2.034 2.034 0 01-.325 1.219 1.821 1.821 0 01-1.463.569h-8.943a1.883 1.883 0 01-1.382-.447 1.846 1.846 0 01-.406-1.341 2.171 2.171 0 01.406-1.422 2.16 2.16 0 011.382-.366zm22.754 7.923v-1.26H90.12v.609q0 .65.488.65zm0-4.226v-1.3H90.12v1.3zm0-4.185v-1.3H90.12v1.3zm-22.754 5.974h8.939a1.914 1.914 0 011.382.406 1.828 1.828 0 01.406 1.382 2 2 0 01-.325 1.26 1.9 1.9 0 01-1.463.528h-8.939a2 2 0 01-1.382-.406 1.828 1.828 0 01-.406-1.382 2.1 2.1 0 01.406-1.382 2 2 0 011.382-.406zm.935 5.689h6.826q2.966 0 2.966 2.926v5.851q0 2.926-2.966 2.926h-6.823q-2.885 0-2.885-2.926v-5.852q0-2.926 2.885-2.926zm5.2 8.127q.691 0 .691-.609v-3.252a.611.611 0 00-.691-.691h-3.572q-.609 0-.609.691v3.251a.539.539 0 00.609.609zm6.989-7.111h18.248a3.012 3.012 0 011.422.284 1.437 1.437 0 01.65 1.178 3.233 3.233 0 01-.935 2.235 20.209 20.209 0 01-5.12 3.779 22.37 22.37 0 005.445.65q1.95 0 1.95 1.788a2.061 2.061 0 01-2.275 1.95 22.989 22.989 0 01-5.973-.894 32.988 32.988 0 01-3.738-1.3 28.071 28.071 0 01-9.833 2.194 1.271 1.271 0 01-1.178-.528 2.023 2.023 0 01-.447-1.1 1.44 1.44 0 011.3-1.625 35.374 35.374 0 006.217-1.178 13.2 13.2 0 01-3.413-3.251 3.736 3.736 0 01-.65-1.26h-1.666q-1.056-.081-1.1-1.463.043-1.419 1.1-1.46zm5.892 2.926a8.092 8.092 0 002.6 2.235q.772.447 1.544.813a16.851 16.851 0 004.64-2.558q0-.488-.163-.488zm23.071-18.635l14.157-.496-.006-.174a2.672 2.672 0 01.538-1.97 2.634 2.634 0 012.014-.677 2.844 2.844 0 012.098.49 2.624 2.624 0 01.719 1.969l.006.172 14.376-.503a1.9 1.9 0 011.4.384 1.75 1.75 0 01.393 1.286 1.776 1.776 0 01-.26 1.18 1.692 1.692 0 01-1.408.612l-14.38.504.073 2.078 12.297-.43a1.818 1.818 0 011.27.345 1.527 1.527 0 01.387 1.156 1.972 1.972 0 01-.257 1.224 1.675 1.675 0 01-1.28.565l-12.302.43.073 2.079 15.804-.554a1.831 1.831 0 011.358.385 1.618 1.618 0 01.435 1.285 1.79 1.79 0 01-.304 1.225 1.786 1.786 0 01-1.367.568l-36.587 1.282a1.993 1.993 0 01-1.312-.344 1.66 1.66 0 01-.48-1.324 1.925 1.925 0 01.385-1.358 1.993 1.993 0 011.285-.435l15.415-.54-.073-2.078-12.427.435a1.654 1.654 0 01-1.226-.347 1.925 1.925 0 01-.394-1.33 1.715 1.715 0 01.306-1.182 1.654 1.654 0 011.199-.432l12.427-.435-.073-2.076-14.158.496a1.963 1.963 0 01-1.356-.342 1.774 1.774 0 01-.437-1.33 2.067 2.067 0 01.343-1.356 1.963 1.963 0 011.329-.437zm5.374 16.111l24.465-.857q3.463-.121 3.578 3.17l.506 14.417q.074 2.122-.902 2.806a5.614 5.614 0 01-3.348.984 23.39 23.39 0 01-7.479-.648 2.17 2.17 0 01-1.267-1.516q-.08-2.251 1.647-2.485a6.697 6.697 0 011.217.087 20.953 20.953 0 004.74.442.668.668 0 00.494-.755l-.083-2.382-21.514.754.182 5.195a2.151 2.151 0 01-.588 1.798 2.538 2.538 0 01-1.715.537 2.363 2.363 0 01-1.884-.541 2.423 2.423 0 01-.62-1.626l-.56-15.976q-.115-3.29 3.131-3.404zm1.94 10.856l21.52-.753-.078-2.208-21.516.754zm-.187-5.368l21.518-.754-.06-1.732a.46.46 0 00-.538-.502l-20.088.704q-.91.032-.89.551zm50.883-31.415q2.16.039 2.2 1.728v19.993a3.328 3.328 0 01-1.021 2.632 6.809 6.809 0 01-3.849.943 11.036 11.036 0 01-3.771-.432 2.494 2.494 0 01-1.571-2.4 1.838 1.838 0 011.571-2.042 6.816 6.816 0 01.943.079 16.279 16.279 0 002.671.236.674.674 0 00.668-.746V26.905q.077-1.689 2.159-1.728zm-9.9 3.614a2.858 2.858 0 011.65.432 1.813 1.813 0 01.746 1.61 16.736 16.736 0 01-1.058 3.731 65.048 65.048 0 01-5.539 10.723 2.058 2.058 0 01-2.082 1.3 3.308 3.308 0 01-1.688-.75 2.2 2.2 0 01-.511-1.492 4.588 4.588 0 01.511-1.493 59.419 59.419 0 006.245-12.765 1.694 1.694 0 011.728-1.296zm19.835 0a1.942 1.942 0 011.414.825 118.58 118.58 0 016.481 11.823 6.873 6.873 0 01.864 2.592 1.788 1.788 0 01-.668 1.571 2.623 2.623 0 01-1.65.668 1.728 1.728 0 01-1.728-1.257 105.5 105.5 0 00-6.245-12.1 5.122 5.122 0 01-.822-2.236 1.828 1.828 0 01.746-1.414 2.836 2.836 0 011.611-.472zm1.689 15.24a2.516 2.516 0 011.571.628 2.068 2.068 0 01.786 1.768 3.6 3.6 0 01-.786 1.689 40.7 40.7 0 01-9.662 7.384 65.933 65.933 0 01-13.472 5.42 18.046 18.046 0 01-4.829 1.057 2.075 2.075 0 01-1.65-.589 3.3 3.3 0 01-.511-1.768 2.5 2.5 0 011.257-2.078 66.167 66.167 0 0015.358-5.185 42.079 42.079 0 0010.527-7.5 1.71 1.71 0 011.413-.827z" fill="#fff"/><path d="M243.445 65.584a6.7 6.7 0 01-3.3 5.735 2.953 2.953 0 01-1.65.589 1.175 1.175 0 01-.864-.354.931.931 0 01-.354-.707 1.5 1.5 0 01.825-1.3q1.93-1.375 1.93-1.925a.208.208 0 00-.24-.238 1.528 1.528 0 00-.432.118 2.907 2.907 0 01-.9.118 2.809 2.809 0 01-2.164-.936 2.969 2.969 0 01-.864-2.126q0-3.574 3.889-3.574a3.777 3.777 0 013.024 1.335 4.77 4.77 0 011.1 3.265z" fill="#00a8c1" stroke="#df4882" stroke-width="7"/><path d="M243.445 65.584a6.7 6.7 0 01-3.3 5.735 2.953 2.953 0 01-1.65.589 1.175 1.175 0 01-.864-.354.931.931 0 01-.354-.707 1.5 1.5 0 01.825-1.3q1.93-1.375 1.93-1.925a.208.208 0 00-.24-.238 1.528 1.528 0 00-.432.118 2.907 2.907 0 01-.9.118 2.809 2.809 0 01-2.164-.936 2.969 2.969 0 01-.864-2.126q0-3.574 3.889-3.574a3.777 3.777 0 013.024 1.335 4.77 4.77 0 011.1 3.265z" fill="#fff"/><path d="M544.408 80.147a6.7 6.7 0 01-3.3 5.735 2.953 2.953 0 01-1.65.589 1.175 1.175 0 01-.864-.354.931.931 0 01-.354-.707 1.5 1.5 0 01.825-1.3q1.93-1.375 1.93-1.925a.208.208 0 00-.24-.238 1.528 1.528 0 00-.432.118 2.907 2.907 0 01-.9.118 2.809 2.809 0 01-2.164-.936 2.969 2.969 0 01-.864-2.126q0-3.574 3.889-3.574a3.777 3.777 0 013.024 1.335 4.77 4.77 0 011.1 3.265z" fill="#00a8c1" stroke="#df4882" stroke-width="7"/><path d="M544.408 80.147a6.7 6.7 0 01-3.3 5.735 2.953 2.953 0 01-1.65.589 1.175 1.175 0 01-.864-.354.931.931 0 01-.354-.707 1.5 1.5 0 01.825-1.3q1.93-1.375 1.93-1.925a.208.208 0 00-.24-.238 1.528 1.528 0 00-.432.118 2.907 2.907 0 01-.9.118 2.809 2.809 0 01-2.164-.936 2.969 2.969 0 01-.864-2.126q0-3.574 3.889-3.574a3.777 3.777 0 013.024 1.335 4.77 4.77 0 011.1 3.265zM201.654 36.669a3.4 3.4 0 011.735.275 1.553 1.553 0 01.88 1.492 5.153 5.153 0 01-.194 1.11q-.19.56-.379 1.156l21.144-1.109a1.848 1.848 0 011.334.297 1.686 1.686 0 01.51 1.365 2.125 2.125 0 01-.227 1.257 1.665 1.665 0 01-1.428.698l-10.114.53.239 4.564 9.202-.482a1.536 1.536 0 011.843 1.625q.1 1.897-1.653 1.99l-9.203.481.3 5.733 11.577-.606a2.086 2.086 0 011.37.295 1.721 1.721 0 01.47 1.33 2.183 2.183 0 01-.26 1.33 1.729 1.729 0 01-1.393.659l-11.574.607.347 6.61a1.669 1.669 0 01-.439 1.414 2.011 2.011 0 01-1.507.592 1.854 1.854 0 01-1.456-.436 1.9 1.9 0 01-.51-1.365l-.347-6.61-14.786.774a1.867 1.867 0 01-1.337-.37 1.868 1.868 0 01-.515-1.441 1.923 1.923 0 01.367-1.374 2.113 2.113 0 011.295-.435l2.776-.145-.315-6.02q-.174-3.324 3.185-3.5l8.655-.454-.239-4.565-8.91.467-.462.973a37.355 37.355 0 01-2.76 4.65 2.116 2.116 0 01-1.71.932 2.631 2.631 0 01-1.783-.492 1.746 1.746 0 01-.694-1.39 1.651 1.651 0 01.392-.9 34.814 34.814 0 005.323-10.239 1.685 1.685 0 011.25-1.274zm10.081 21.187l-.3-5.734-7.34.385q-.694.036-.654.803l.26 4.966zm56.409-37.806a3.848 3.848 0 011.715.366 1.626 1.626 0 01.776 1.357q-.14.798-1.164 4.138l15.49.27q3.399.06 3.322 4.468l-.437 25.019a2.679 2.679 0 01-1.347 2.664 8.528 8.528 0 01-4.255.766q-5.037-.088-7.533-1.476a2.324 2.324 0 01-1.147-1.7q.042-2.392 1.892-2.528a5.117 5.117 0 011.423.277 20.907 20.907 0 005.735 1.024.706.706 0 00.686-.788l.394-22.541q.014-.8-.486-.809l-24.857-.434a.705.705 0 00-.813.786l-.461 26.406a1.8 1.8 0 01-.7 1.588 2.831 2.831 0 01-1.728.39 2.057 2.057 0 01-1.627-.574 2.077 2.077 0 01-.519-1.485l.475-27.203q.077-4.408 3.142-4.354l8.311.145q.58-1.963 1.297-4.471a2.423 2.423 0 012.416-1.301zm-2.983 14.519l10.285.18q3.19.055 3.134 3.287l-.175 10.034q-.055 3.19-3.246 3.135l-10.285-.18q-3.19-.055-3.135-3.246l.175-10.035q.056-3.23 3.247-3.175zm7.508 12.564a1.188 1.188 0 001.367-1.32l.1-5.71a1.188 1.188 0 00-1.32-1.369l-5.207-.09a1.169 1.169 0 00-1.323 1.32l-.1 5.71a1.169 1.169 0 001.277 1.368zm21.682-29.876l9.447-.496-.053-1.024a3.611 3.611 0 01.542-2.322 3.421 3.421 0 012.607-.921q1.987-.105 2.5.47a2.9 2.9 0 011.091 2.417l.054 1.027 16.552-.867-.053-1.025a3.4 3.4 0 01.602-2.325 3.421 3.421 0 012.607-.921q1.987-.104 2.5.47a2.9 2.9 0 011.096 2.42l.054 1.024 10.107-.53a3.438 3.438 0 012.259.483 3.056 3.056 0 01.782 2.252 2.982 2.982 0 01-.44 1.955 2.85 2.85 0 01-2.298 1.085l-10.107.53.1 1.926a2.78 2.78 0 01-.666 2.268l-.283.316a6.812 6.812 0 013.091 1.407q5.388 4.908 11.653 10.434a2.983 2.983 0 01.775 2.133 3.287 3.287 0 01-.846 2.277 2.891 2.891 0 01-2.059 1.01 3.946 3.946 0 01-2.959-1.046 51.883 51.883 0 01-8.015-7.849q-1.422-1.796-2.144-1.758-.783.041-1.68 1.356a93.79 93.79 0 01-7.123 9.185 4.825 4.825 0 01-3.156 1.976 3.628 3.628 0 01-2.651-1.068 3.668 3.668 0 01-.826-1.948 2.526 2.526 0 01.564-1.9q5.416-6.078 10.33-12.492a5.521 5.521 0 011.514-1.045 2.744 2.744 0 01-1.425-.71 2.672 2.672 0 01-.9-2.186l-.1-1.927-16.552.867.1 1.927a2.78 2.78 0 01-.665 2.268 2.452 2.452 0 01-1.524.864 2.746 2.746 0 01.5 1.483l.18 3.43 7.464-.39a3.438 3.438 0 012.258.482 2.934 2.934 0 01.782 2.252 2.731 2.731 0 01-.444 1.894 2.773 2.773 0 01-2.294 1.147l-12.76.668.102 1.927q.098 1.865.126 3.554l8.908-.467a6.216 6.216 0 013.905.822q1.25.835 1.418 4.031.379 7.223.403 11.144-.122 5.74-2.077 7.593a5.767 5.767 0 01-3.947 1.836q-5.36.221-7.543-1.113a3.217 3.217 0 01-1.415-2.823 3.493 3.493 0 01.807-1.793 2.5 2.5 0 011.71-.753 4.543 4.543 0 011.278.174 10.52 10.52 0 003.592.597q1.565-.082 1.67-2.683.013-3.2-.38-10.723-.039-.722-.52-.697l-7.936.416a21.684 21.684 0 01-.24 2.431 33.391 33.391 0 01-6.256 16.498 4.133 4.133 0 01-2.114 1.137 2.456 2.456 0 01-1.837-.504 2.68 2.68 0 01-.937-1.765 4.818 4.818 0 01.421-2.315q4.552-8.688 4.856-14.438a91.446 91.446 0 00.027-9.839l-.1-1.926-3.61.19a2.947 2.947 0 01-2.21-.61 2.858 2.858 0 01-.775-2.131 3.461 3.461 0 01.542-2.322 3.328 3.328 0 012.136-.713l8.188-.429-.18-3.433a3.2 3.2 0 01.846-2.278 2.334 2.334 0 011.353-.671 3.5 3.5 0 01-.45-1.667l-.1-1.928-9.446.495a2.932 2.932 0 01-2.211-.67 2.514 2.514 0 01-.836-2.069 3.263 3.263 0 01.606-2.326 3.482 3.482 0 012.138-.712zm34.546 23.478a5.226 5.226 0 012.5.47 92.52 92.52 0 0111.7 6.75 3.8 3.8 0 011.063 1.875 3.123 3.123 0 01-.564 1.9 3.8 3.8 0 01-1.92 1.369 5.013 5.013 0 01-2.249-.305 9.727 9.727 0 01-2.052-1.16 107.118 107.118 0 00-9.236-5.793 4.2 4.2 0 01-.881-.677 2.55 2.55 0 01-.873-1.648 2.919 2.919 0 012.51-2.787zm-3.994 11.37a9.489 9.489 0 014.033.936q10.855 5.594 14.339 8.726a2.68 2.68 0 011.378 2.1 2.729 2.729 0 01-.505 1.838 3.029 3.029 0 01-1.99 1.19 4.871 4.871 0 01-3.249-.976 148.748 148.748 0 00-14.953-8.93 3.013 3.013 0 01-1.558-2.09 2.43 2.43 0 01.676-2.088 2.547 2.547 0 011.83-.706zM409.6 22.61l11.009-.578a2.244 2.244 0 011.621.367q.62.368.691 1.72a2.937 2.937 0 01-.261 1.716 2.221 2.221 0 01-1.815.796l-11.004.577a2.209 2.209 0 01-1.58-.469 2.137 2.137 0 01-.753-1.812 2.153 2.153 0 01.556-1.832 2.345 2.345 0 011.536-.486zm-1.44 6.9l14.808-.777a2.647 2.647 0 011.926.45 2.622 2.622 0 01.596 1.826 2.991 2.991 0 01-.356 1.821 2.225 2.225 0 01-1.906.953l-14.81.777a2.438 2.438 0 01-1.83-.556 2.661 2.661 0 01-.705-1.966 2.635 2.635 0 01.498-1.883 2.708 2.708 0 011.773-.645zm2.188 7.362l10.809-.567a2.635 2.635 0 011.775.359 2.4 2.4 0 01.542 1.728 2.509 2.509 0 01-.32 1.519 2.157 2.157 0 01-1.762.793l-10.814.567a2.355 2.355 0 01-1.68-.464 2.049 2.049 0 01-.642-1.618 2.51 2.51 0 01.458-1.78 2.7 2.7 0 011.634-.537zm.364 6.956l10.81-.566a2.445 2.445 0 011.777.407 2.423 2.423 0 01.54 1.674 2.471 2.471 0 01-.319 1.573 2.242 2.242 0 01-1.763.744l-10.814.567a2.506 2.506 0 01-1.678-.413 2.124 2.124 0 01-.644-1.668 2.431 2.431 0 01.46-1.727 2.506 2.506 0 011.631-.59zm.378 7.206l10.408-.545q3.253-.17 3.423 3.082l.441 8.407q.165 3.153-3.087 3.324l-10.409.545q-3.153.165-3.318-2.987l-.44-8.407q-.172-3.252 2.982-3.418zm8.592 9.788a.664.664 0 00.711-.79l-.21-4.004q-.041-.799-.792-.76l-5.656.297q-.75.04-.709.838l.21 4.004a.664.664 0 00.79.711zm10.586-39.296a4.022 4.022 0 011.918.3 1.915 1.915 0 01.945 1.753 10.151 10.151 0 01-.124 1.462 40.794 40.794 0 01-1.86 6.521l13.61-.713a3.32 3.32 0 01.702.013q-1.13-2.45-2.34-5.397a1.4 1.4 0 00-1.501-.875l-4.954.26a2.463 2.463 0 01-1.683-.513 2.833 2.833 0 01-.644-1.768 2.134 2.134 0 01.512-1.683 2.071 2.071 0 011.574-.636l6.407-.335q2.953-.155 4.82 3.912 2.452 5.592 4.963 10.428a3.425 3.425 0 01.432 1.534 2.092 2.092 0 01-.523 1.482 2.869 2.869 0 01-1.912.853 2.635 2.635 0 01-1.883-.502q-.44-.778-.84-1.658l.396 7.556q.145 2.753-2.707 2.902l-1.354.071.682 13.007q.045.851.796.812l1.05-.055q1.188-.263 1.36-1.828a28.776 28.776 0 00.066-4.47 1.492 1.492 0 01.638-1.188 3.9 3.9 0 011.083-.357 6.211 6.211 0 011.56.069 1.884 1.884 0 011.15 1.842 26.367 26.367 0 01-.373 7.154 4.082 4.082 0 01-3.24 3.274l-5.255.276q-3.166-.086-3.373-4.04l-.747-14.26-2.903.153a37.153 37.153 0 01-.714 8.417 20.051 20.051 0 01-5.08 9.4 2.79 2.79 0 01-1.799 1.096 2.779 2.779 0 01-2.044-.794 2.683 2.683 0 01-.84-1.659 2.357 2.357 0 01.656-1.837 17.428 17.428 0 004.26-6.797 22.391 22.391 0 00.958-7.577l-.699.036q-2.852.15-2.996-2.602l-.315-6.014a2.4 2.4 0 01-1.713.843 2.877 2.877 0 01-1.985-.548 1.78 1.78 0 01-.78-1.515 2.19 2.19 0 01.395-1.075 51.276 51.276 0 004.873-13.203 1.888 1.888 0 011.375-1.527zm11.914 20.505q.95-.05.899-1.049l-.234-4.454a.842.842 0 00-1-.9l-7.858.411a.842.842 0 00-.9 1l.233 4.455q.052.998 1.003.949zm25.287-37.425l67.006 7.07a5.197 5.197 0 013.41 1.312q.85.955.58 3.522a5.49 5.49 0 01-1.114 3.17 4.395 4.395 0 01-3.844 1.152l-28.756-3.034a87.87 87.87 0 01-7.15 11.186 6.815 6.815 0 011.121.032 5.003 5.003 0 013.546 1.672 4.948 4.948 0 011.058 3.919l-4.769 45.185a5.78 5.78 0 01-1.293 3.238 4.732 4.732 0 01-4.392 1.44 4.738 4.738 0 01-3.732-2.298 5.15 5.15 0 01-.76-3.454l4.632-43.9q-1.482 1.746-2.87 3.419-12.876 13.784-25.368 21.469a8.004 8.004 0 01-5.092 1.54 4.59 4.59 0 01-2.81-1.25 5.088 5.088 0 01-2.036-4.547 5.903 5.903 0 011.266-2.985q15.92-9.825 24.682-18.245a100.96 100.96 0 0013.274-17.552l-27.555-2.907a4.688 4.688 0 01-3.306-1.474q-.927-1.05-.638-3.79a5.139 5.139 0 011.388-3.31 5.246 5.246 0 013.522-.58zm46.4 25.23a3.902 3.902 0 012.895 2.122 240.144 240.144 0 0116.648 27.543 10.878 10.878 0 011.98 5.833 3.918 3.918 0 01-1.815 3.27 5.747 5.747 0 01-3.748 1.075 4.602 4.602 0 01-4.24-3.304 206.514 206.514 0 00-15.32-27.835q-2.063-3.42-1.891-5.045a3.69 3.69 0 011.951-2.913 6.003 6.003 0 013.54-.746zM354.231 69.3q-.17 1.613-1.887 1.431-1.05-.11-1.94-1.763a24.36 24.36 0 01-2.408-14.109 24.03 24.03 0 015.332-13.253 9.313 9.313 0 01.99-.995 1.778 1.778 0 011.239-.294 1.743 1.743 0 011.178.585 1.6 1.6 0 01.373 1.136 2.563 2.563 0 01-.61 1.423 22.697 22.697 0 00-2.634 4.472 23.184 23.184 0 00-2.186 7.315 23.367 23.367 0 00.589 7.856 19.245 19.245 0 001.657 4.746 2.351 2.351 0 01.307 1.45zm21.311-28.858l17.134 1.808a2.01 2.01 0 011.257.486 1.715 1.715 0 01.244 1.372 1.622 1.622 0 01-.466 1.088 1.565 1.565 0 01-1.39.42l-4.664-.492-.266 2.524 3.259.344a2.46 2.46 0 012.476 3.06l-.769 7.281a2.476 2.476 0 01-3.064 2.511l-6.093-.643.031.039a2.164 2.164 0 01.297 1.554l-.107 1.016 6.268.662a1.989 1.989 0 011.294.49 1.766 1.766 0 01.214 1.33 1.72 1.72 0 01-.437 1.124 1.657 1.657 0 01-1.422.381l-6.268-.662-.31 2.944 7.567.798a1.8 1.8 0 011.253.522 1.843 1.843 0 01.214 1.33 2.306 2.306 0 01-.414 1.232 1.666 1.666 0 01-1.425.416l-19.092-2.014a1.525 1.525 0 01-1.49-2 1.853 1.853 0 01.558-1.249 1.901 1.901 0 011.302-.252l7.568.799.31-2.936-5.888-.622a2.055 2.055 0 01-.552-.128.665.665 0 01.012.213 2.601 2.601 0 01-.576 1.428 1.512 1.512 0 01-1.487.658q-.696-.074-1.595-1.338a17.73 17.73 0 01-1.88-3.351q-.287.714-.603 1.354a22.029 22.029 0 01-4.652 6.488 2.351 2.351 0 01-1.45.308 1.375 1.375 0 01-.86-.587 1.565 1.565 0 01-.161-1.828 5.316 5.316 0 01.96-1.387 22.936 22.936 0 004.161-7.532 35.379 35.379 0 001.409-6.972l1.301-12.33a1.294 1.294 0 01.485-.906 1.931 1.931 0 011.348-.318 2.46 2.46 0 011.256.486 1.24 1.24 0 01.415 1.107l-.888 8.41A45.435 45.435 0 00372.401 45a1.821 1.821 0 01.491-.622 1.4 1.4 0 01.991-.32 2.623 2.623 0 01.882.376 1.6 1.6 0 01.78 1.36 1.634 1.634 0 01-.253.718 4.776 4.776 0 011.17-.017l3.225.34.266-2.526-4.766-.503a1.8 1.8 0 01-1.216-.554 1.67 1.67 0 01-.252-1.302 2.023 2.023 0 01.526-1.29 2.035 2.035 0 011.297-.218zm-2.259 9.327q-.455.625-.95 1.281a33.664 33.664 0 01-3.122 3.393q-.25 1.71-.493 2.995a20.973 20.973 0 003.005 5.773 1.947 1.947 0 01.554-1.218 2.035 2.035 0 011.299-.217l5.886.621.107-1.016a2.03 2.03 0 01.611-1.424q.077-.062.113-.058l-5.187-.548a2.491 2.491 0 01-2.507-3.103zm5.749.253l-1.753-.185q-.56-.06-.615.466l-.292 2.768a.41.41 0 01.08-.098 8.183 8.183 0 002.579-2.952zm-2.775 4.133l-.159 1.507q-.055.525.505.584l11.913 1.258a.467.467 0 00.58-.47l.119-1.12-3.085-.325q-2.662-.281-2.455-2.243l.296-2.803-1.791-.19a1.159 1.159 0 01-.065.278 8.056 8.056 0 01-2.805 4.097 2.989 2.989 0 01-1.612.503 1.622 1.622 0 01-1.08-.47 1.941 1.941 0 01-.362-.604zm6.512-6.995l1.537.163.267-2.527-1.537-.162zm6.745 5.92l.148-1.405a.467.467 0 00-.47-.581l-2.14-.226-.133 1.257q-.07.666.666.744zm-25.173-8.186a2.38 2.38 0 011.164.406 1.276 1.276 0 01.337 1.17q-.026.245-.231 1.183-1.269 4.967-2.258 7.627a1.183 1.183 0 01-1.214.757 2.331 2.331 0 01-1.458-.615 1.49 1.49 0 01-.34-1.134 12.615 12.615 0 01.485-1.579q.804-2.253 1.947-6.703a1.457 1.457 0 011.568-1.112zm40.807 15.997a24.36 24.36 0 01-5.3 13.293q-1.213 1.43-2.265 1.32-1.718-.182-1.547-1.794a2.351 2.351 0 01.603-1.354 19.245 19.245 0 002.615-4.294 23.367 23.367 0 002.216-7.56 23.184 23.184 0 00-.615-7.61 22.697 22.697 0 00-1.641-4.921 2.563 2.563 0 01-.3-1.522 1.55 1.55 0 01.64-1.03 1.62 1.62 0 011.241-.33 1.778 1.778 0 011.15.546 5.113 5.113 0 01.761 1.18 24.03 24.03 0 012.442 14.076z" fill="#fff"/><path d="M116.87 101.21a1.979 1.979 0 011.463.512 2.155 2.155 0 01.549 1.536 2.233 2.233 0 01-.549 1.316 34.312 34.312 0 01-4.132 1.061v5.376h3.547a2.077 2.077 0 011.426.4 1.779 1.779 0 01.475 1.463 2.019 2.019 0 01-.366 1.316 1.932 1.932 0 01-1.536.585H114.2v1.865a2.658 2.658 0 01.768-.11 1.832 1.832 0 01.841.329 9.367 9.367 0 011.243 1.975 12.977 12.977 0 011.536 4.608 1.612 1.612 0 01-.4 1.134 1.992 1.992 0 01-1.463.475 1.746 1.746 0 01-1.353-.768q-.512-1.719-1.17-3.328v11.559a1.739 1.739 0 01-.475 1.39 1.784 1.784 0 01-1.426.512 1.854 1.854 0 01-1.426-.512 1.9 1.9 0 01-.439-1.39v-12.1q-2.126 6.029-3.513 7.27a2.018 2.018 0 01-1.463.439 1.868 1.868 0 01-1.061-.475 1.792 1.792 0 01-.4-1.134 4.213 4.213 0 01.4-1.682 55.989 55.989 0 005.084-10.054h-3.328a2.123 2.123 0 01-1.426-.439 1.868 1.868 0 01-.439-1.463 2.184 2.184 0 01.439-1.463 2.256 2.256 0 011.426-.4h4.279v-4.644a30.632 30.632 0 01-3.657.366q-1.867-.076-1.938-1.758a1.417 1.417 0 011.171-1.572 76.124 76.124 0 009.691-1.938 3.284 3.284 0 011.169-.257zm6.985 1.134a2.213 2.213 0 011.316.622 15.732 15.732 0 013.474 3.547 5.28 5.28 0 011.207 2.889 1.361 1.361 0 01-.4 1.061 1.952 1.952 0 01-1.5.549 1.365 1.365 0 01-.914-.256 1.375 1.375 0 01-.549-.658q-1.28-1.828-4.242-5.449a1.191 1.191 0 01-.293-.695 1.8 1.8 0 01.146-.658 2.145 2.145 0 01.841-.768 2.186 2.186 0 01.914-.184zm-1.609 8.923a2.311 2.311 0 011.316.585 15.3 15.3 0 013.108 3.547 5.088 5.088 0 011.134 2.743 1.557 1.557 0 01-.439 1.207 2.051 2.051 0 01-1.572.585 1.733 1.733 0 01-1.1-.293 1.235 1.235 0 01-.512-.622q-1.1-1.792-3.584-5.449a1.334 1.334 0 01-.256-.695 2.027 2.027 0 01.146-.658 1.857 1.857 0 01.841-.768 2.186 2.186 0 01.918-.182zm15.213 9.654a1.4 1.4 0 011.243.585 2.113 2.113 0 01.366 1.316 2.007 2.007 0 01-.439 1.353 1.856 1.856 0 01-1.319.586q-1.28.219-2.45.4v7.35a1.9 1.9 0 01-.4 1.207 1.672 1.672 0 01-1.536.695 1.769 1.769 0 01-1.463-.695 1.8 1.8 0 01-.439-1.207v-6.765a97.26 97.26 0 01-9.91.914 2.248 2.248 0 01-1.5-.475 2.248 2.248 0 01-.585-1.572 1.883 1.883 0 01.475-1.39 2.424 2.424 0 011.9-.695q4.9-.4 9.618-.878v-19.306a1.883 1.883 0 01.549-1.39 1.829 1.829 0 011.353-.512 1.878 1.878 0 011.388.512 1.809 1.809 0 01.549 1.39v18.87q1.319-.146 2.599-.293zm8.537-13.275h3.693v-5.741q.037-1.536 1.9-1.609 1.792 0 1.865 1.609v5.741h3.218a1.931 1.931 0 011.316.366q.439.329.439 1.536a2.23 2.23 0 01-.256 1.28 1.757 1.757 0 01-1.5.585h-3.216v7.35a16.1 16.1 0 002.194-.8 2.909 2.909 0 011.17-.4 1.905 1.905 0 011.463.512 2.156 2.156 0 01.585 1.536 2.033 2.033 0 01-.585 1.316 23.406 23.406 0 01-4.827 2.011v8.411a2.811 2.811 0 01-.695 2.121 3.985 3.985 0 01-2.231.951h-3.071a2.587 2.587 0 01-1.755-.8 1.71 1.71 0 01-.4-1.1 2.224 2.224 0 01.366-1.426 1.8 1.8 0 011.39-.658h2.011q.622-.037.622-.439v-6a19.1 19.1 0 01-3.218.439q-2.011-.073-2.084-1.9a1.62 1.62 0 011.316-1.755q2.158-.439 3.986-.878v-8.484h-3.697a1.859 1.859 0 01-1.243-.4 1.769 1.769 0 01-.512-1.463 1.927 1.927 0 01.512-1.572 1.853 1.853 0 011.243-.338zm14.043-2.377h6v-3.072a1.941 1.941 0 01.585-1.353 2.059 2.059 0 011.463-.4 2.142 2.142 0 011.463.4 1.666 1.666 0 01.622 1.353v3.072h6.29a1.832 1.832 0 011.28.4q.475.329.475 1.5a2.182 2.182 0 01-.297 1.315 1.724 1.724 0 01-1.463.622h-6.29v4.352h3.767a4.083 4.083 0 012.45.622 2.635 2.635 0 01.768 2.158 14.173 14.173 0 01-2.523 7.789 18.251 18.251 0 01-3.109 3.657 27.072 27.072 0 004.608 2.414 7.4 7.4 0 011.646.8 1.6 1.6 0 01.695 1.463 1.881 1.881 0 01-.8 1.609 2.367 2.367 0 01-1.359.299 10.677 10.677 0 01-3.949-1.353 35.682 35.682 0 01-4.023-2.743 51.633 51.633 0 01-4.973 2.852 12.651 12.651 0 01-4.169 1.39 1.949 1.949 0 01-1.646-.622 1.614 1.614 0 01-.44-1.133 1.943 1.943 0 01.475-1.316 50.073 50.073 0 007.9-3.8 36.707 36.707 0 01-3.328-4.132q-1.9-2.67-1.975-3.949a1.479 1.479 0 01.695-1.207 2.191 2.191 0 011.39-.4 1.528 1.528 0 01.987.622q.695 1.17 1.243 2.011a25.037 25.037 0 004.205 4.864 4.774 4.774 0 00.512-.439 12.836 12.836 0 004.023-7.2q-.073-.4-.768-.4H160.51a1.714 1.714 0 01-1.316-.439 1.992 1.992 0 01-.475-1.463 2.032 2.032 0 01.512-1.5 1.734 1.734 0 011.28-.439h5.522v-4.352h-6a1.681 1.681 0 01-1.243-.475 1.769 1.769 0 01-.512-1.463 1.94 1.94 0 01.512-1.536 1.722 1.722 0 011.248-.377zm26.712-3.218h28.634a2.079 2.079 0 011.5.439 1.979 1.979 0 01.4 1.463 2.183 2.183 0 01-.329 1.316 1.919 1.919 0 01-1.572.622H196.11q-.256 1.463-1.024 4.681h13.713a9.56 9.56 0 013.8.512 2.082 2.082 0 011.17 2.084q0 1.609-3.145 15.505h5.522a2.1 2.1 0 011.463.439 1.868 1.868 0 01.439 1.463 2.154 2.154 0 01-.366 1.39 1.785 1.785 0 01-1.536.695h-30.165a2.058 2.058 0 01-1.463-.512 2.2 2.2 0 01-.439-1.572 2.184 2.184 0 01.439-1.463 2.274 2.274 0 011.463-.439h20.223q.475-1.975.841-3.62h-15.469q-3.218-.366-3.218-2.926 0-.731 3.693-16.237h-5.3a1.992 1.992 0 01-1.463-.475 1.941 1.941 0 01-.439-1.463 2.184 2.184 0 01.439-1.463 2.1 2.1 0 011.461-.438zm21.059 19.492q1.572-6.948 1.572-7.2t-.439-.256h-14.624q-.695 3-1.572 6.838 0 .622.549.622zm33.514 7.9a1.676 1.676 0 011.28.4.835.835 0 01.329.4 34.209 34.209 0 003.077-8.959 54.563 54.563 0 001.024-11.044h-1.865a1.843 1.843 0 01-1.353-.439 2.142 2.142 0 01-.4-1.463 2.067 2.067 0 01.4-1.316 1.923 1.923 0 011.353-.439h1.865v-4.681a1.809 1.809 0 01.475-1.28 2.828 2.828 0 011.28-.329 2.509 2.509 0 011.5.4 1.718 1.718 0 01.4 1.207q0 2.56-.037 4.681h2.958q3.657 0 3.693 4.132 0 14.884-.512 18.577a6.411 6.411 0 01-1.243 3.73 5.1 5.1 0 01-3.693 1.39 6.267 6.267 0 01-3.218-.768q-1.024-.4-1.024-2.048a2.279 2.279 0 01.622-1.17 1.661 1.661 0 011.17-.439.838.838 0 01.256.073 5.5 5.5 0 002.194.512q1.39-.219 1.5-2.3.256-3.657.256-16.858a1.161 1.161 0 00-.293-.951.877.877 0 00-.695-.219h-2.011v.366a57.361 57.361 0 01-.658 9.289 42.606 42.606 0 01-4.388 13.75 2.989 2.989 0 01-1.609.622 2.377 2.377 0 01-1.5-.512 1.548 1.548 0 01-.512-1.243v-.037a.6.6 0 01-.146.037l-16.27 1.463a1.517 1.517 0 01-1.207-.512 1.519 1.519 0 01-.4-1.1 1.656 1.656 0 01.366-1.1 1.32 1.32 0 011.1-.512l6.29-.549v-2.377h-5.522a1.546 1.546 0 01-1.134-.366 1.514 1.514 0 01-.329-1.1 1.809 1.809 0 01.329-1.17 1.8 1.8 0 011.134-.293h5.522v-1.609h-4.827a2.2 2.2 0 01-2.45-2.523v-7.606a2.166 2.166 0 012.45-2.45h4.827v-1.609h-6.588a1.718 1.718 0 01-1.207-.4 1.5 1.5 0 01-.4-1.207 1.831 1.831 0 01.4-1.28 1.971 1.971 0 011.207-.329h6.582v-1.536q-2.889.183-6.144.219a1.674 1.674 0 01-1.609-1.9q.11-1.134 1.463-1.316 8.3-.146 15.286-.878.549-.037.841-.037a1.282 1.282 0 011.024.475 1.792 1.792 0 01.4 1.134 1.518 1.518 0 01-1.134 1.463 60.348 60.348 0 01-6.29.585v1.792h6.144a1.944 1.944 0 011.243.329 1.633 1.633 0 01.366 1.28 1.535 1.535 0 01-.329 1.061 1.542 1.542 0 01-1.28.549h-6.143v1.609h5.229a2.2 2.2 0 012.523 2.45v7.606a2.23 2.23 0 01-2.523 2.523h-5.229v1.609h5.668a1.575 1.575 0 011.134.329q.329.256.329 1.134a1.523 1.523 0 01-.256.951 1.38 1.38 0 01-1.207.512h-5.668v2.084zm-2.6-9.069q.695 0 .695-.768v-1.28h-3.909v2.048zm-7.058 0v-2.048h-3.511v1.28q0 .768.731.768zm-3.511-4.681h3.511v-2.049h-2.779q-.731 0-.731.695zm7.35-2.048v2.048h3.913v-1.353a.614.614 0 00-.695-.695zm29.857-6.144h16.648q-.11-2.6-.11-5.449a2.308 2.308 0 01.475-1.609 2.435 2.435 0 011.572-.4 2.877 2.877 0 011.536.329 2.012 2.012 0 01.695 1.682l.073 5.449h9.142a2.23 2.23 0 011.463.4 1.928 1.928 0 01.439 1.5 2.249 2.249 0 01-.366 1.39 1.874 1.874 0 01-1.536.622h-9.033a56.361 56.361 0 001.572 9.764 22.736 22.736 0 002.962 7.35q.987 1.207 1.719 1.207a1.239 1.239 0 00.951-.731 7.574 7.574 0 00.987-1.828 1.2 1.2 0 011.134-.8 2.854 2.854 0 011.28.329 2.01 2.01 0 011.024 1.828 6.154 6.154 0 01-.951 2.816 7.8 7.8 0 01-2.743 2.706 3.713 3.713 0 01-1.682.366 6.078 6.078 0 01-3.84-1.9 19.353 19.353 0 01-3.364-5.7 48.143 48.143 0 01-2.67-10.971q-.329-2.084-.512-4.425h-16.858a2.274 2.274 0 01-1.463-.439 2.2 2.2 0 01-.439-1.572 2.246 2.246 0 01.439-1.5 2.419 2.419 0 011.463-.415zm.914 8.74h13.311a2.23 2.23 0 011.463.4 2 2 0 01.439 1.5 2.019 2.019 0 01-.366 1.316 1.874 1.874 0 01-1.536.622h-4.527v6.948q3.511-.256 6.838-.512a1.44 1.44 0 011.243.549 2.019 2.019 0 01.369 1.32 2.431 2.431 0 01-.439 1.5 1.9 1.9 0 01-1.28.549 159.776 159.776 0 01-16.566 1.316 2.333 2.333 0 01-1.5-.439 2.257 2.257 0 01-.549-1.572 1.883 1.883 0 01.475-1.39 2.575 2.575 0 011.9-.658q2.67-.183 5.266-.366v-7.24h-4.535a1.992 1.992 0 01-1.463-.475 1.941 1.941 0 01-.439-1.463 2.336 2.336 0 01.439-1.5 2.23 2.23 0 011.464-.406zm25.269-15.944a3.5 3.5 0 011.316.439 14.46 14.46 0 012.121 1.975 4.324 4.324 0 011.39 2.158 1.682 1.682 0 01-.475 1.243 2.454 2.454 0 01-1.536.475 1.4 1.4 0 01-1.207-.549 25.082 25.082 0 00-3.328-3.62.707.707 0 01-.293-.512 1.5 1.5 0 01.658-1.28 3.15 3.15 0 011.361-.33zm14.424 3.657h3.328v-2.048a1.72 1.72 0 01.475-1.134 1.923 1.923 0 011.28-.329 2.066 2.066 0 011.353.329 1.386 1.386 0 01.549 1.134v2.048h2.926a1.471 1.471 0 011.134.366.768.768 0 01.256.4 20.284 20.284 0 001.243-2.377 2.2 2.2 0 011.353-.549 2.59 2.59 0 011.061.183 1.5 1.5 0 01.8 1.426 4.465 4.465 0 01-.4 1.316 37.519 37.519 0 01-2.926 4.827h2.3a2.013 2.013 0 011.28.329 1.755 1.755 0 01.329 1.28 1.831 1.831 0 01-.293 1.1 1.639 1.639 0 01-1.316.512h-4.741l-.878 1.1q-.549.549-.987 1.061h4.425q1.316.037 1.646.475a1.537 1.537 0 01.549 1.134 4.589 4.589 0 01-.4 1.865 10.848 10.848 0 01-2.67 3.511 12.877 12.877 0 01-1.835 1.571v.037q2.889-.11 5.668-.219a1.415 1.415 0 011.1.439 1.683 1.683 0 01.366 1.17 1.951 1.951 0 01-.4 1.243 1.622 1.622 0 01-1.061.512q-2.6.183-5.047.293.073.841.073 1.572a7.975 7.975 0 01-.914 4.352 3.019 3.019 0 01-2.633 1.39 16.1 16.1 0 01-4.681-.622 1.927 1.927 0 01-1.28-1.9 1.434 1.434 0 01.4-1.061 1.343 1.343 0 011.207-.549 1.686 1.686 0 01.585.146 6.92 6.92 0 002.487.475q1.134 0 1.134-2.633a8.182 8.182 0 00-.073-.987q-4.1.183-7.972.219a2.05 2.05 0 01-1.28-.366 2.016 2.016 0 01-.475-1.39 1.664 1.664 0 01.4-1.17 2.225 2.225 0 011.646-.585q3.547-.11 6.948-.219a5.781 5.781 0 00-.183-.695 6.616 6.616 0 01-.293-1.536 1.324 1.324 0 01.549-1.134 2.588 2.588 0 011.353-.329 1.688 1.688 0 011.5.695 8.425 8.425 0 001.024-1.134 2.777 2.777 0 00.695-1.024q0-.329-.146-.329h-5.156a1.109 1.109 0 01-.329-.037 37.662 37.662 0 01-4.5 3.876 5.719 5.719 0 01-1.755.4 1.952 1.952 0 01-1.316-.439 2.112 2.112 0 01-.439-1.17 1.266 1.266 0 01.768-1.17 43.159 43.159 0 007.46-6.692.573.573 0 00.11-.146h-6.729a1.718 1.718 0 01-1.207-.4 1.5 1.5 0 01-.4-1.207 1.831 1.831 0 01.4-1.28 1.971 1.971 0 011.207-.329h4.681v-2.523h-3.328a1.625 1.625 0 01-1.134-.366 1.645 1.645 0 01-.366-1.243 1.625 1.625 0 01.366-1.134 1.745 1.745 0 011.137-.332zm8.082 5.6a29.669 29.669 0 001.755-2.523h-2.852v2.523zm12.507-9.106a3.211 3.211 0 011.5.293 1.341 1.341 0 01.731 1.316 15.84 15.84 0 01-.219 1.646q-.183 1.134-.475 2.34h7.131a1.848 1.848 0 011.317.366 1.686 1.686 0 01.439 1.39 1.8 1.8 0 01-.293 1.134 1.665 1.665 0 01-1.463.622h-.037a45.023 45.023 0 01-3.73 13.092q-.293.658-.622 1.243a24.089 24.089 0 003.438 4.791q1.646 1.682 1.938 2.084a1.485 1.485 0 01.914 1.28 2.211 2.211 0 01-.622 1.572 1.927 1.927 0 01-1.426.658 2.026 2.026 0 01-1.28-.549q-2.45-1.755-5.01-6.4a24.761 24.761 0 01-5.083 5.6 5.956 5.956 0 01-2.523 1.353 2.2 2.2 0 01-1.682-.658 1.93 1.93 0 01-.549-1.243 1.361 1.361 0 01.914-1.316 28.865 28.865 0 006.985-7.68q-1.134-2.779-2.158-5.7-.219.622-.439 1.1a1.977 1.977 0 01-1.463.549 1.858 1.858 0 01-1.316-.475 1.392 1.392 0 01-.439-1.134 3.527 3.527 0 01.293-1.28 78.99 78.99 0 004.059-14.92 1.533 1.533 0 011.177-1.079zm-.183 12.068q.183.695.475 1.755a47.534 47.534 0 002.011 5.485 31.756 31.756 0 002.706-10.2h-4.307q-.366 1.243-.768 2.56-.073.248-.11.394zm24.235 5.333h17.88q1.792.11 1.9 2.084a2.616 2.616 0 01-.768 1.682 12.135 12.135 0 01-3.4 2.523h8.7a1.416 1.416 0 011.1.366 1.283 1.283 0 01.366 1.1 1.657 1.657 0 01-.329 1.134 1.34 1.34 0 01-1.134.475h-11.994a16.087 16.087 0 01.256 2.377 5.944 5.944 0 01-.877 3.619 3.414 3.414 0 01-2.743 1.207 21.353 21.353 0 01-6.144-.768 1.931 1.931 0 01-1.353-1.9 1.225 1.225 0 01.4-.951 1.222 1.222 0 011.061-.512 3.421 3.421 0 01.987.183 12.288 12.288 0 003.693.585q1.207 0 1.207-1.938a7.723 7.723 0 00-.329-1.9H344.61a1.57 1.57 0 01-1.1-.366 1.645 1.645 0 01-.366-1.243 1.769 1.769 0 01.366-1.17 1.831 1.831 0 011.1-.293h13.421a3.08 3.08 0 01-.073-.549 1.39 1.39 0 01.585-1.17 3.313 3.313 0 011.426-.293 1.634 1.634 0 011.609.878 2 2 0 01.11.256q3.584-1.353 3.73-2.048 0-.293-.475-.293H350.61q-1.243-.11-1.463-1.609a1.313 1.313 0 011.463-1.466zm2.926-17.407a1.527 1.527 0 011.061.439 1.691 1.691 0 01.439.914q0 .8-1.061 1.17a34.844 34.844 0 01-3.876.8q-1.5.439-1.5 1.1l.037.549h4.791a1.218 1.218 0 01.878.256 1.174 1.174 0 01.293.914 1.359 1.359 0 01-.219.878 1.031 1.031 0 01-.951.475h-4.571l.146 1.609h4.425a1.359 1.359 0 01.878.219 1.161 1.161 0 01.293.951 1.288 1.288 0 01-.219.841 1.031 1.031 0 01-.951.475h-4.242l.146 1.609h5.924l-.11-.073a1.373 1.373 0 01-.256-.8 1.074 1.074 0 01.549-.914q1.243-.585 2.3-1.17-.987-.512-1.865-.914a3.648 3.648 0 00-.439-.219.963.963 0 01-.293-.585 1.147 1.147 0 01.366-.951 1.334 1.334 0 01.987-.366 2.619 2.619 0 011.024.256 25.928 25.928 0 012.743 1.28 14.9 14.9 0 001.39-.987q1.1-.731 1.28-.841a1.046 1.046 0 01.549-.183 1.138 1.138 0 01.841.293 1.08 1.08 0 01.475.878 1.625 1.625 0 01-.293.914 18.8 18.8 0 01-1.719 1.316 22.026 22.026 0 012.011 1.28 1.515 1.515 0 01.293.914 1.071 1.071 0 01-.256.731q-.073.146-.11.146h5.266q.073-.878.146-1.609h-3.584a1 1 0 01-.841-.329 1.366 1.366 0 01-.293-.987 1.267 1.267 0 01.329-.987 1.512 1.512 0 01.8-.183h3.8q.073-.914.146-1.609h-3.949a1 1 0 01-.841-.329 1.51 1.51 0 01-.293-1.024 1.287 1.287 0 01.329-.951 1.314 1.314 0 01.8-.219h4.169q.073-.914.073-1.316 0-.439-.256-.439h-3.84a1.277 1.277 0 01-1.426-1.463q0-1.316 1.426-1.316h5.449q2.158 0 2.158 1.938 0 1.061-.841 10.824h.146a2.036 2.036 0 012.3 2.3v4.137a1.376 1.376 0 01-.439 1.17 1.788 1.788 0 01-1.316.439 1.835 1.835 0 01-1.463-.512 1.733 1.733 0 01-.293-1.1v-3.364q0-.329-.4-.329h-24.45q-.4 0-.4.329v3.367q0 .914-.366 1.17a1.9 1.9 0 01-1.39.439 1.734 1.734 0 01-1.316-.4 1.424 1.424 0 01-.439-1.207v-4.132a2.036 2.036 0 012.3-2.3h.183l-.731-9.691q0-1.646 2.3-2.267 2.67-.695 4.535-1.1a7.67 7.67 0 011.321-.153zm9.8.293a1.239 1.239 0 01.841.256 1.179 1.179 0 01.475.914 1.666 1.666 0 01-.256.914 15.665 15.665 0 01-1.463 1.024l1.316.878a1.43 1.43 0 01.256.841 1.18 1.18 0 01-.256.8.936.936 0 01-.768.366 2.237 2.237 0 01-1.17-.329q-.951-.585-1.865-1.1a21.8 21.8 0 01-2.743 1.353 3.886 3.886 0 01-1.353.366 1.516 1.516 0 01-1.061-.366 1.215 1.215 0 01-.256-.768 1.019 1.019 0 01.549-.914q1.28-.549 2.3-1.1-.987-.512-1.755-.878-.219-.11-.4-.183a.993.993 0 01-.293-.622 1.054 1.054 0 01.4-.914 1.116 1.116 0 01.914-.4 3.086 3.086 0 01.951.256 25.925 25.925 0 012.743 1.28 9.164 9.164 0 001.134-.731q1.061-.695 1.243-.8a1.024 1.024 0 01.514-.143zm-6 12.909h5.632a1.2 1.2 0 01-.183-.146q-1.28-.768-2.45-1.39a28.852 28.852 0 01-2.706 1.39.824.824 0 01-.293.146zm28.723-10.13h26.476a2.16 2.16 0 011.5.439 1.868 1.868 0 01.439 1.463 2.155 2.155 0 01-.366 1.39 1.825 1.825 0 01-1.572.695h-11.118v20.771h13.055a2.287 2.287 0 011.572.439 1.947 1.947 0 01.475 1.572 2.013 2.013 0 01-.4 1.39 1.969 1.969 0 01-1.646.695h-30.17a2.165 2.165 0 01-1.536-.512 1.927 1.927 0 01-.512-1.572 2.361 2.361 0 01.512-1.609 2.557 2.557 0 011.536-.4h12.726V107.5h-10.971a1.928 1.928 0 01-1.426-.512 2.09 2.09 0 01-.475-1.572 2.072 2.072 0 01.475-1.463 2.123 2.123 0 011.426-.439zm44.923 24.17h-6.838a1.779 1.779 0 01-1.316-.475 1.941 1.941 0 01-.439-1.463 1.923 1.923 0 01.439-1.353 1.976 1.976 0 011.316-.4h2.779v-19.709q0-3.072 2.67-3.072h19.272q2.779 0 2.779 3.072v19.711h2.523a1.951 1.951 0 011.353.4 1.793 1.793 0 01.4 1.353 2.183 2.183 0 01-.329 1.316 1.683 1.683 0 01-1.426.622h-8.082a39.17 39.17 0 007.972 3.364q.768.256 1.243.439a1.349 1.349 0 01.622 1.316 1.837 1.837 0 01-.731 1.426 2.336 2.336 0 01-1.646.439 8.572 8.572 0 01-1.134-.073 28.014 28.014 0 01-7.241-3.035 9.423 9.423 0 01-1.975-1.426 3.279 3.279 0 01-.329-1.17 1.7 1.7 0 01.4-1.061 2.139 2.139 0 01.183-.219h-8.667a1.711 1.711 0 01.329.987 1.558 1.558 0 01-.585 1.207 25.875 25.875 0 01-2.267 1.463 40.184 40.184 0 01-5.815 2.816 5.244 5.244 0 01-1.682.4 2.323 2.323 0 01-1.719-.622 1.9 1.9 0 01-.512-1.28 1.819 1.819 0 01.914-1.609 54.825 54.825 0 007.46-3.328.105.105 0 01.079-.036zm-.073-3.693h16.822v-2.45H430.91zm0-5.668h16.822v-2.229H430.91zm0-5.449h16.822v-2.158H430.91zm0-5.376h16.822v-2.231q0-.4-.622-.4H431.31a.356.356 0 00-.4.4z" fill="#df4882"/></svg>